<svg version="1.1" viewBox="0.0 0.0 864.0 371.0" fill="none" stroke="none" stroke-linecap="square" stroke-miterlimit="10" width="864" height="371" xmlns:xlink="http://www.w3.org/1999/xlink" xmlns="http://www.w3.org/2000/svg"><path fill="#ffffff" d="M0 0L864.0 0L864.0 371.0L0 371.0L0 0Z" fill-rule="nonzero"/><path stroke="#000000" stroke-width="1.0" stroke-linecap="butt" stroke-opacity="0.0" d="M154.5 62.5L154.5 331.5" fill-rule="nonzero"/><path stroke="#000000" stroke-width="1.0" stroke-linecap="butt" stroke-opacity="0.0" d="M144.5 62.5L144.5 331.5" fill-rule="nonzero"/><path stroke="#000000" stroke-width="1.0" stroke-linecap="butt" stroke-opacity="0.0" d="M134.5 62.5L134.5 331.5" fill-rule="nonzero"/><path stroke="#000000" stroke-width="1.0" stroke-linecap="butt" stroke-opacity="0.0" d="M124.5 62.5L124.5 331.5" fill-rule="nonzero"/><path stroke="#000000" stroke-width="1.0" stroke-linecap="butt" stroke-opacity="0.0" d="M114.5 62.5L114.5 331.5" fill-rule="nonzero"/><path stroke="#000000" stroke-width="1.0" stroke-linecap="butt" stroke-opacity="0.0" d="M104.5 62.5L104.5 331.5" fill-rule="nonzero"/><path stroke="#000000" stroke-width="1.0" stroke-linecap="butt" stroke-opacity="0.0" d="M219.5 62.5L219.5 331.5" fill-rule="nonzero"/><path stroke="#000000" stroke-width="1.0" stroke-linecap="butt" stroke-opacity="0.0" d="M210.5 62.5L210.5 331.5" fill-rule="nonzero"/><path stroke="#000000" stroke-width="1.0" stroke-linecap="butt" stroke-opacity="0.0" d="M201.5 62.5L201.5 331.5" fill-rule="nonzero"/><path stroke="#000000" stroke-width="1.0" stroke-linecap="butt" stroke-opacity="0.0" d="M191.5 62.5L191.5 331.5" fill-rule="nonzero"/><path stroke="#000000" stroke-width="1.0" stroke-linecap="butt" stroke-opacity="0.0" d="M182.5 62.5L182.5 331.5" fill-rule="nonzero"/><path stroke="#000000" stroke-width="1.0" stroke-linecap="butt" stroke-opacity="0.0" d="M173.5 62.5L173.5 331.5" fill-rule="nonzero"/><path stroke="#000000" stroke-width="1.0" stroke-linecap="butt" stroke-opacity="0.0" d="M288.5 62.5L288.5 331.5" fill-rule="nonzero"/><path stroke="#000000" stroke-width="1.0" stroke-linecap="butt" stroke-opacity="0.0" d="M278.5 62.5L278.5 331.5" fill-rule="nonzero"/><path stroke="#000000" stroke-width="1.0" stroke-linecap="butt" stroke-opacity="0.0" d="M268.5 62.5L268.5 331.5" fill-rule="nonzero"/><path stroke="#000000" stroke-width="1.0" stroke-linecap="butt" stroke-opacity="0.0" d="M258.5 62.5L258.5 331.5" fill-rule="nonzero"/><path stroke="#000000" stroke-width="1.0" stroke-linecap="butt" stroke-opacity="0.0" d="M248.5 62.5L248.5 331.5" fill-rule="nonzero"/><path stroke="#000000" stroke-width="1.0" stroke-linecap="butt" stroke-opacity="0.0" d="M238.5 62.5L238.5 331.5" fill-rule="nonzero"/><path stroke="#000000" stroke-width="1.0" stroke-linecap="butt" stroke-opacity="0.0" d="M356.5 62.5L356.5 331.5" fill-rule="nonzero"/><path stroke="#000000" stroke-width="1.0" stroke-linecap="butt" stroke-opacity="0.0" d="M346.5 62.5L346.5 331.5" fill-rule="nonzero"/><path stroke="#000000" stroke-width="1.0" stroke-linecap="butt" stroke-opacity="0.0" d="M336.5 62.5L336.5 331.5" fill-rule="nonzero"/><path stroke="#000000" stroke-width="1.0" stroke-linecap="butt" stroke-opacity="0.0" d="M327.5 62.5L327.5 331.5" fill-rule="nonzero"/><path stroke="#000000" stroke-width="1.0" stroke-linecap="butt" stroke-opacity="0.0" d="M317.5 62.5L317.5 331.5" fill-rule="nonzero"/><path stroke="#000000" stroke-width="1.0" stroke-linecap="butt" stroke-opacity="0.0" d="M308.5 62.5L308.5 331.5" fill-rule="nonzero"/><path stroke="#000000" stroke-width="1.0" stroke-linecap="butt" stroke-opacity="0.0" d="M425.5 62.5L425.5 331.5" fill-rule="nonzero"/><path stroke="#000000" stroke-width="1.0" stroke-linecap="butt" stroke-opacity="0.0" d="M415.5 62.5L415.5 331.5" fill-rule="nonzero"/><path stroke="#000000" stroke-width="1.0" stroke-linecap="butt" stroke-opacity="0.0" d="M405.5 62.5L405.5 331.5" fill-rule="nonzero"/><path stroke="#000000" stroke-width="1.0" stroke-linecap="butt" stroke-opacity="0.0" d="M395.5 62.5L395.5 331.5" fill-rule="nonzero"/><path stroke="#000000" stroke-width="1.0" stroke-linecap="butt" stroke-opacity="0.0" d="M385.5 62.5L385.5 331.5" fill-rule="nonzero"/><path stroke="#000000" stroke-width="1.0" stroke-linecap="butt" stroke-opacity="0.0" d="M375.5 62.5L375.5 331.5" fill-rule="nonzero"/><path stroke="#000000" stroke-width="1.0" stroke-linecap="butt" stroke-opacity="0.0" d="M492.5 62.5L492.5 331.5" fill-rule="nonzero"/><path stroke="#000000" stroke-width="1.0" stroke-linecap="butt" stroke-opacity="0.0" d="M483.5 62.5L483.5 331.5" fill-rule="nonzero"/><path stroke="#000000" stroke-width="1.0" stroke-linecap="butt" stroke-opacity="0.0" d="M473.5 62.5L473.5 331.5" fill-rule="nonzero"/><path stroke="#000000" stroke-width="1.0" stroke-linecap="butt" stroke-opacity="0.0" d="M464.5 62.5L464.5 331.5" fill-rule="nonzero"/><path stroke="#000000" stroke-width="1.0" stroke-linecap="butt" stroke-opacity="0.0" d="M454.5 62.5L454.5 331.5" fill-rule="nonzero"/><path stroke="#000000" stroke-width="1.0" stroke-linecap="butt" stroke-opacity="0.0" d="M444.5 62.5L444.5 331.5" fill-rule="nonzero"/><path stroke="#000000" stroke-width="1.0" stroke-linecap="butt" stroke-opacity="0.0" d="M562.5 62.5L562.5 331.5" fill-rule="nonzero"/><path stroke="#000000" stroke-width="1.0" stroke-linecap="butt" stroke-opacity="0.0" d="M552.5 62.5L552.5 331.5" fill-rule="nonzero"/><path stroke="#000000" stroke-width="1.0" stroke-linecap="butt" stroke-opacity="0.0" d="M542.5 62.5L542.5 331.5" fill-rule="nonzero"/><path stroke="#000000" stroke-width="1.0" stroke-linecap="butt" stroke-opacity="0.0" d="M532.5 62.5L532.5 331.5" fill-rule="nonzero"/><path stroke="#000000" stroke-width="1.0" stroke-linecap="butt" stroke-opacity="0.0" d="M522.5 62.5L522.5 331.5" fill-rule="nonzero"/><path stroke="#000000" stroke-width="1.0" stroke-linecap="butt" stroke-opacity="0.0" d="M512.5 62.5L512.5 331.5" fill-rule="nonzero"/><path stroke="#000000" stroke-width="1.0" stroke-linecap="butt" stroke-opacity="0.0" d="M631.5 62.5L631.5 331.5" fill-rule="nonzero"/><path stroke="#000000" stroke-width="1.0" stroke-linecap="butt" stroke-opacity="0.0" d="M621.5 62.5L621.5 331.5" fill-rule="nonzero"/><path stroke="#000000" stroke-width="1.0" stroke-linecap="butt" stroke-opacity="0.0" d="M611.5 62.5L611.5 331.5" fill-rule="nonzero"/><path stroke="#000000" stroke-width="1.0" stroke-linecap="butt" stroke-opacity="0.0" d="M601.5 62.5L601.5 331.5" fill-rule="nonzero"/><path stroke="#000000" stroke-width="1.0" stroke-linecap="butt" stroke-opacity="0.0" d="M591.5 62.5L591.5 331.5" fill-rule="nonzero"/><path stroke="#000000" stroke-width="1.0" stroke-linecap="butt" stroke-opacity="0.0" d="M581.5 62.5L581.5 331.5" fill-rule="nonzero"/><path stroke="#000000" stroke-width="1.0" stroke-linecap="butt" stroke-opacity="0.0" d="M699.5 62.5L699.5 331.5" fill-rule="nonzero"/><path stroke="#000000" stroke-width="1.0" stroke-linecap="butt" stroke-opacity="0.0" d="M689.5 62.5L689.5 331.5" fill-rule="nonzero"/><path stroke="#000000" stroke-width="1.0" stroke-linecap="butt" stroke-opacity="0.0" d="M679.5 62.5L679.5 331.5" fill-rule="nonzero"/><path stroke="#000000" stroke-width="1.0" stroke-linecap="butt" stroke-opacity="0.0" d="M670.5 62.5L670.5 331.5" fill-rule="nonzero"/><path stroke="#000000" stroke-width="1.0" stroke-linecap="butt" stroke-opacity="0.0" d="M660.5 62.5L660.5 331.5" fill-rule="nonzero"/><path stroke="#000000" stroke-width="1.0" stroke-linecap="butt" stroke-opacity="0.0" d="M651.5 62.5L651.5 331.5" fill-rule="nonzero"/><path stroke="#000000" stroke-width="1.0" stroke-linecap="butt" stroke-opacity="0.0" d="M768.5 62.5L768.5 331.5" fill-rule="nonzero"/><path stroke="#000000" stroke-width="1.0" stroke-linecap="butt" stroke-opacity="0.0" d="M758.5 62.5L758.5 331.5" fill-rule="nonzero"/><path stroke="#000000" stroke-width="1.0" stroke-linecap="butt" stroke-opacity="0.0" d="M748.5 62.5L748.5 331.5" fill-rule="nonzero"/><path stroke="#000000" stroke-width="1.0" stroke-linecap="butt" stroke-opacity="0.0" d="M738.5 62.5L738.5 331.5" fill-rule="nonzero"/><path stroke="#000000" stroke-width="1.0" stroke-linecap="butt" stroke-opacity="0.0" d="M728.5 62.5L728.5 331.5" fill-rule="nonzero"/><path stroke="#000000" stroke-width="1.0" stroke-linecap="butt" stroke-opacity="0.0" d="M718.5 62.5L718.5 331.5" fill-rule="nonzero"/><path stroke="#000000" stroke-width="1.0" stroke-linecap="butt" stroke-opacity="0.0" d="M835.5 62.5L835.5 331.5" fill-rule="nonzero"/><path stroke="#000000" stroke-width="1.0" stroke-linecap="butt" stroke-opacity="0.0" d="M826.5 62.5L826.5 331.5" fill-rule="nonzero"/><path stroke="#000000" stroke-width="1.0" stroke-linecap="butt" stroke-opacity="0.0" d="M816.5 62.5L816.5 331.5" fill-rule="nonzero"/><path stroke="#000000" stroke-width="1.0" stroke-linecap="butt" stroke-opacity="0.0" d="M807.5 62.5L807.5 331.5" fill-rule="nonzero"/><path stroke="#000000" stroke-width="1.0" stroke-linecap="butt" stroke-opacity="0.0" d="M797.5 62.5L797.5 331.5" fill-rule="nonzero"/><path stroke="#000000" stroke-width="1.0" stroke-linecap="butt" stroke-opacity="0.0" d="M787.5 62.5L787.5 331.5" fill-rule="nonzero"/><path stroke="#333333" stroke-width="1.0" stroke-linecap="butt" d="M94.5 331.5L845.5 331.5" fill-rule="nonzero"/><path stroke="#cccccc" stroke-width="1.0" stroke-linecap="butt" d="M94.5 264.5L845.5 264.5" fill-rule="nonzero"/><path stroke="#cccccc" stroke-width="1.0" stroke-linecap="butt" d="M94.5 196.5L845.5 196.5" fill-rule="nonzero"/><path stroke="#cccccc" stroke-width="1.0" stroke-linecap="butt" d="M94.5 129.5L845.5 129.5" fill-rule="nonzero"/><path stroke="#cccccc" stroke-width="1.0" stroke-linecap="butt" d="M94.5 62.5L845.5 62.5" fill-rule="nonzero"/><clipPath id="id_0"><path d="M94.55 62.416668L845.45 62.416668L845.45 331.45L94.55 331.45L94.55 62.416668Z" clip-rule="nonzero"/></clipPath><path fill="#674ea7" fill-opacity="0.3019608" clip-path="url(#id_0)" d="M94.55 156.22859L164.03627 172.18227L229.03955 133.52217L298.52582 143.61093L365.7706 109.57821L435.25687 110.60054L502.50165 139.3871L571.9879 129.16383L641.4742 160.15648L708.71893 110.277695L778.2052 119.07509L845.45 146.43578L845.45 331.45L778.2052 331.45L708.71893 331.45L641.4742 331.45L571.9879 331.45L502.50165 331.45L435.25687 331.45L365.7706 331.45L298.52582 331.45L229.03955 331.45L164.03627 331.45L94.55 331.45Z" fill-rule="nonzero"/><path stroke="#674ea7" stroke-width="2.0" stroke-linecap="butt" clip-path="url(#id_0)" d="M94.55 156.22859L164.03627 172.18227L229.03955 133.52217L298.52582 143.61093L365.7706 109.57821L435.25687 110.60054L502.50165 139.3871L571.9879 129.16383L641.4742 160.15648L708.71893 110.277695L778.2052 119.07509L845.45 146.43578" fill-rule="nonzero"/><path fill="#000000" fill-opacity="0.0" clip-path="url(#id_0)" d="M97.55 156.22859C97.55 157.88544 96.206856 159.22859 94.55 159.22859C92.89314 159.22859 91.55 157.88544 91.55 156.22859C91.55 154.57173 92.89314 153.22859 94.55 153.22859C96.206856 153.22859 97.55 154.57173 97.55 156.22859Z" fill-rule="nonzero"/><path fill="#000000" fill-opacity="0.0" clip-path="url(#id_0)" d="M167.03627 172.18227C167.03627 173.83913 165.69313 175.18227 164.03627 175.18227C162.37941 175.18227 161.03627 173.83913 161.03627 172.18227C161.03627 170.5254 162.37941 169.18227 164.03627 169.18227C165.69313 169.18227 167.03627 170.5254 167.03627 172.18227Z" fill-rule="nonzero"/><path fill="#000000" fill-opacity="0.0" clip-path="url(#id_0)" d="M232.03955 133.52217C232.03955 135.17903 230.69641 136.52217 229.03955 136.52217C227.38269 136.52217 226.03955 135.17903 226.03955 133.52217C226.03955 131.86533 227.38269 130.52217 229.03955 130.52217C230.69641 130.52217 232.03955 131.86533 232.03955 133.52217Z" fill-rule="nonzero"/><path fill="#000000" fill-opacity="0.0" clip-path="url(#id_0)" d="M301.52582 143.61093C301.52582 145.26778 300.18268 146.61093 298.52582 146.61093C296.86896 146.61093 295.52582 145.26778 295.52582 143.61093C295.52582 141.95407 296.86896 140.61093 298.52582 140.61093C300.18268 140.61093 301.52582 141.95407 301.52582 143.61093Z" fill-rule="nonzero"/><path fill="#000000" fill-opacity="0.0" clip-path="url(#id_0)" d="M368.7706 109.57821C368.7706 111.23506 367.42746 112.57821 365.7706 112.57821C364.11374 112.57821 362.7706 111.23506 362.7706 109.57821C362.7706 107.92136 364.11374 106.57821 365.7706 106.57821C367.42746 106.57821 368.7706 107.92136 368.7706 109.57821Z" fill-rule="nonzero"/><path fill="#000000" fill-opacity="0.0" clip-path="url(#id_0)" d="M438.25687 110.60054C438.25687 112.25739 436.91373 113.60054 435.25687 113.60054C433.6 113.60054 432.25687 112.25739 432.25687 110.60054C432.25687 108.94368 433.6 107.60054 435.25687 107.60054C436.91373 107.60054 438.25687 108.94368 438.25687 110.60054Z" fill-rule="nonzero"/><path fill="#000000" fill-opacity="0.0" clip-path="url(#id_0)" d="M505.50165 139.3871C505.50165 141.04396 504.1585 142.3871 502.50165 142.3871C500.8448 142.3871 499.50165 141.04396 499.50165 139.3871C499.50165 137.73026 500.8448 136.3871 502.50165 136.3871C504.1585 136.3871 505.50165 137.73026 505.50165 139.3871Z" fill-rule="nonzero"/><path fill="#000000" fill-opacity="0.0" clip-path="url(#id_0)" d="M574.9879 129.16383C574.9879 130.8207 573.6448 132.16383 571.9879 132.16383C570.33105 132.16383 568.9879 130.8207 568.9879 129.16383C568.9879 127.50698 570.33105 126.16383 571.9879 126.16383C573.6448 126.16383 574.9879 127.50698 574.9879 129.16383Z" fill-rule="nonzero"/><path fill="#000000" fill-opacity="0.0" clip-path="url(#id_0)" d="M644.4742 160.15648C644.4742 161.81332 643.13104 163.15648 641.4742 163.15648C639.8173 163.15648 638.4742 161.81332 638.4742 160.15648C638.4742 158.49962 639.8173 157.15648 641.4742 157.15648C643.13104 157.15648 644.4742 158.49962 644.4742 160.15648Z" fill-rule="nonzero"/><path fill="#000000" fill-opacity="0.0" clip-path="url(#id_0)" d="M711.71893 110.277695C711.71893 111.93455 710.3758 113.277695 708.71893 113.277695C707.0621 113.277695 705.71893 111.93455 705.71893 110.277695C705.71893 108.62084 707.0621 107.277695 708.71893 107.277695C710.3758 107.277695 711.71893 108.62084 711.71893 110.277695Z" fill-rule="nonzero"/><path fill="#000000" fill-opacity="0.0" clip-path="url(#id_0)" d="M781.2052 119.07509C781.2052 120.73194 779.86206 122.07509 778.2052 122.07509C776.54834 122.07509 775.2052 120.73194 775.2052 119.07509C775.2052 117.418236 776.54834 116.07509 778.2052 116.07509C779.86206 116.07509 781.2052 117.418236 781.2052 119.07509Z" fill-rule="nonzero"/><path fill="#000000" fill-opacity="0.0" clip-path="url(#id_0)" d="M848.45 146.43578C848.45 148.09264 847.1069 149.43578 845.45 149.43578C843.79315 149.43578 842.45 148.09264 842.45 146.43578C842.45 144.77892 843.79315 143.43578 845.45 143.43578C847.1069 143.43578 848.45 144.77892 848.45 146.43578Z" fill-rule="nonzero"/><path fill="#424242" d="M22.018763 239.18333L27.815638 239.18333Q29.018763 239.19896 29.800013 239.94896Q30.565638 240.69896 30.659388 241.98021L30.675013 242.29271Q30.675013 243.68333 29.925013 244.52708Q29.159388 245.35521 27.831263 245.35521L22.018763 245.35521L22.018763 244.24583L27.800013 244.24583Q28.721888 244.24583 29.237513 243.74583Q29.753138 243.23021 29.753138 242.29271Q29.753138 241.32396 29.237513 240.82396Q28.721888 240.32396 27.800013 240.32396L22.018763 240.32396L22.018763 239.18333ZM28.862513 233.66771Q28.425013 233.66771 28.190638 234.01146Q27.940638 234.33958 27.768763 235.16771Q27.596888 235.98021 27.346888 236.46458Q27.096888 236.94896 26.768763 237.18333Q26.425013 237.40208 25.956263 237.40208Q25.175013 237.40208 24.643763 236.74583Q24.096888 236.08958 24.096888 235.05833Q24.096888 233.98021 24.659388 233.32396Q25.206263 232.65208 26.065638 232.65208L26.065638 233.73021Q25.628138 233.73021 25.315638 234.12083Q24.987513 234.49583 24.987513 235.05833Q24.987513 235.65208 25.253138 235.99583Q25.503138 236.32396 25.909388 236.32396Q26.300013 236.32396 26.503138 236.01146Q26.706263 235.69896 26.893763 234.88646Q27.065638 234.07396 27.315638 233.57396Q27.565638 233.07396 27.925013 232.83958Q28.284388 232.58958 28.784388 232.58958Q29.643763 232.58958 30.159388 233.27708Q30.675013 233.94896 30.675013 235.02708Q30.675013 235.79271 30.409388 236.38646Q30.128138 236.96458 29.643763 237.29271Q29.159388 237.62083 28.596888 237.62083L28.596888 236.54271Q29.143763 236.51146 29.471888 236.10521Q29.784388 235.69896 29.784388 235.02708Q29.784388 234.41771 29.534388 234.04271Q29.284388 233.66771 28.862513 233.66771ZM30.675013 228.73021Q30.675013 230.02708 29.831263 230.83958Q28.971888 231.63646 27.550013 231.63646L27.362513 231.63646Q26.409388 231.63646 25.675013 231.27708Q24.925013 230.91771 24.518763 230.27708Q24.096888 229.62083 24.096888 228.87083Q24.096888 227.63646 24.909388 226.94896Q25.721888 226.26146 27.237513 226.26146L27.690638 226.26146L27.690638 230.55833Q28.628138 230.52708 29.206263 230.01146Q29.784388 229.48021 29.784388 228.66771Q29.784388 228.10521 29.550013 227.71458Q29.315638 227.30833 28.925013 226.99583L29.440638 226.33958Q30.675013 227.13646 30.675013 228.73021ZM24.987513 228.87083Q24.987513 229.52708 25.471888 229.98021Q25.940638 230.41771 26.800013 230.51146L26.800013 227.33958L26.721888 227.33958Q25.893763 227.38646 25.440638 227.79271Q24.987513 228.18333 24.987513 228.87083ZM25.175013 222.29271Q25.143763 222.54271 25.143763 222.82396Q25.143763 223.90208 26.050013 224.27708L30.550013 224.27708L30.550013 225.35521L24.206263 225.35521L24.206263 224.30833L24.940638 224.29271Q24.096888 223.76146 24.096888 222.77708Q24.096888 222.46458 24.175013 222.29271L25.175013 222.29271ZM28.862513 217.66771Q28.425013 217.66771 28.190638 218.01146Q27.940638 218.33958 27.768763 219.16771Q27.596888 219.98021 27.346888 220.46458Q27.096888 220.94896 26.768763 221.18333Q26.425013 221.40208 25.956263 221.40208Q25.175013 221.40208 24.643763 220.74583Q24.096888 220.08958 24.096888 219.05833Q24.096888 217.98021 24.659388 217.32396Q25.206263 216.65208 26.065638 216.65208L26.065638 217.73021Q25.628138 217.73021 25.315638 218.12083Q24.987513 218.49583 24.987513 219.05833Q24.987513 219.65208 25.253138 219.99583Q25.503138 220.32396 25.909388 220.32396Q26.300013 220.32396 26.503138 220.01146Q26.706263 219.69896 26.893763 218.88646Q27.065638 218.07396 27.315638 217.57396Q27.565638 217.07396 27.925013 216.83958Q28.284388 216.58958 28.784388 216.58958Q29.643763 216.58958 30.159388 217.27708Q30.675013 217.94896 30.675013 219.02708Q30.675013 219.79271 30.409388 220.38646Q30.128138 220.96458 29.643763 221.29271Q29.159388 221.62083 28.596888 221.62083L28.596888 220.54271Q29.143763 220.51146 29.471888 220.10521Q29.784388 219.69896 29.784388 219.02708Q29.784388 218.41771 29.534388 218.04271Q29.284388 217.66771 28.862513 217.66771ZM27.456263 206.99583Q28.909388 206.99583 29.800013 207.66771Q30.675013 208.32396 30.675013 209.44896Q30.675013 210.65208 29.815638 211.30833L30.550013 211.37083L30.550013 212.35521L21.550013 212.35521L21.550013 211.27708L24.909388 211.27708Q24.096888 210.62083 24.096888 209.46458Q24.096888 208.30833 24.971888 207.65208Q25.831263 206.99583 27.362513 206.99583L27.456263 206.99583ZM27.331263 208.07396Q26.221888 208.07396 25.628138 208.51146Q25.018763 208.93333 25.018763 209.73021Q25.018763 210.80833 26.003138 211.27708L28.753138 211.27708Q29.753138 210.77708 29.753138 209.73021Q29.753138 208.94896 29.143763 208.51146Q28.534388 208.07396 27.331263 208.07396ZM28.956263 203.29271L24.206263 201.80833L24.206263 200.65208L31.534388 203.19896Q33.11251 203.79271 33.11251 205.07396L33.096886 205.29271L33.01876 205.68333L32.14376 205.68333L32.159386 205.40208Q32.159386 204.83958 31.940638 204.54271Q31.721888 204.23021 31.128138 204.02708L30.471888 203.79271L24.206263 206.05833L24.206263 204.87083L28.956263 203.29271ZM24.206263 195.33958L24.909388 195.30833Q24.096888 194.62083 24.096888 193.43333Q24.096888 192.10521 25.112513 191.62083Q24.659388 191.30833 24.378138 190.80833Q24.096888 190.29271 24.096888 189.60521Q24.096888 187.51146 26.300013 187.48021L30.550013 187.48021L30.550013 188.55833L26.362513 188.55833Q25.690638 188.55833 25.362513 188.87083Q25.018763 189.18333 25.018763 189.91771Q25.018763 190.52708 25.378138 190.93333Q25.737513 191.32396 26.346888 191.38646L30.550013 191.38646L30.550013 192.46458L26.393763 192.46458Q25.018763 192.46458 25.018763 193.82396Q25.018763 194.88646 25.925013 195.27708L30.550013 195.27708L30.550013 196.37083L24.206263 196.37083L24.206263 195.33958ZM27.315638 185.65208Q26.393763 185.65208 25.643763 185.29271Q24.893763 184.91771 24.503138 184.26146Q24.096888 183.60521 24.096888 182.77708Q24.096888 181.48021 24.987513 180.68333Q25.878138 179.87083 27.378138 179.87083L27.456263 179.87083Q28.378138 179.87083 29.112513 180.23021Q29.846888 180.58958 30.268763 181.24583Q30.675013 181.90208 30.675013 182.76146Q30.675013 184.04271 29.784388 184.85521Q28.878138 185.65208 27.393763 185.65208L27.315638 185.65208ZM27.456263 184.55833Q28.503138 184.55833 29.143763 184.07396Q29.784388 183.57396 29.784388 182.76146Q29.784388 181.93333 29.143763 181.44896Q28.487513 180.96458 27.315638 180.96458Q26.284388 180.96458 25.643763 181.46458Q24.987513 181.94896 24.987513 182.77708Q24.987513 183.57396 25.628138 184.07396Q26.253138 184.55833 27.456263 184.55833ZM24.206263 177.33958L25.003138 177.30833Q24.096888 176.57396 24.096888 175.40208Q24.096888 173.38646 26.362513 173.37083L30.550013 173.37083L30.550013 174.46458L26.346888 174.46458Q25.675013 174.46458 25.346888 174.77708Q25.018763 175.07396 25.018763 175.73021Q25.018763 176.26146 25.300013 176.66771Q25.581263 177.05833 26.034388 177.27708L30.550013 177.27708L30.550013 178.35521L24.206263 178.35521L24.206263 177.33958ZM22.675013 169.88646L24.206263 169.88646L24.206263 168.71458L25.050013 168.71458L25.050013 169.88646L28.971888 169.88646Q29.362513 169.88646 29.550013 169.73021Q29.737513 169.57396 29.737513 169.19896Q29.737513 169.01146 29.675013 168.68333L30.550013 168.68333Q30.675013 169.10521 30.675013 169.51146Q30.675013 170.23021 30.237513 170.60521Q29.784388 170.98021 28.971888 170.98021L25.050013 170.98021L25.050013 172.13646L24.206263 172.13646L24.206263 170.98021L22.675013 170.98021L22.675013 169.88646ZM24.971888 166.27708Q24.096888 165.55833 24.096888 164.40208Q24.096888 162.38646 26.362513 162.37083L30.550013 162.37083L30.550013 163.46458L26.346888 163.46458Q25.675013 163.46458 25.346888 163.77708Q25.018763 164.07396 25.018763 164.73021Q25.018763 165.26146 25.300013 165.66771Q25.581263 166.05833 26.034388 166.27708L30.550013 166.27708L30.550013 167.35521L21.550013 167.35521L21.550013 166.27708L24.971888 166.27708Z" fill-rule="nonzero"/><path fill="#757575" d="M87.6125 332.3094Q87.6125 334.21564 86.95625 335.15314Q86.31563 336.075 84.925 336.075Q83.56563 336.075 82.90938 335.16876Q82.25313 334.2625 82.22188 332.45L82.22188 331.0125Q82.22188 329.1219 82.8625 328.21564Q83.51875 327.29376 84.90938 327.29376Q86.28438 327.29376 86.94063 328.1844Q87.59688 329.0594 87.6125 330.90314L87.6125 332.3094ZM86.51875 330.825Q86.51875 329.45 86.12813 328.825Q85.75313 328.1844 84.90938 328.1844Q84.08125 328.1844 83.69063 328.825Q83.31563 329.45 83.31563 330.7469L83.31563 332.48126Q83.31563 333.85626 83.70625 334.52814Q84.1125 335.1844 84.925 335.1844Q85.72188 335.1844 86.1125 334.5594Q86.50313 333.9344 86.51875 332.60626L86.51875 330.825Z" fill-rule="nonzero"/><path fill="#757575" d="M64.84688 268.69168L59.253124 268.69168L59.253124 267.91043L62.20625 264.62918Q62.8625 263.87918 63.1125 263.42606Q63.3625 262.9573 63.3625 262.4573Q63.3625 261.78543 62.95625 261.36356Q62.565624 260.92606 61.878124 260.92606Q61.08125 260.92606 60.628124 261.3948Q60.175 261.84793 60.175 262.67606L59.096874 262.67606Q59.096874 261.48856 59.846874 260.7698Q60.6125 260.03543 61.878124 260.03543Q63.08125 260.03543 63.76875 260.66043Q64.45625 261.28543 64.45625 262.3323Q64.45625 263.5823 62.846874 265.3323L60.565624 267.80106L64.84688 267.80106L64.84688 268.69168ZM66.33125 270.3948L65.72188 269.97293Q66.26875 269.2073 66.3 268.37918L66.3 267.41043L67.3625 267.41043L67.3625 268.25418Q67.3625 268.84793 67.06563 269.44168Q66.76875 270.03543 66.33125 270.3948ZM68.75313 264.41043L69.19063 260.16043L73.56563 260.16043L73.56563 261.16043L70.1125 261.16043L69.84688 263.48856Q70.4875 263.11356 71.28438 263.11356Q72.44063 263.11356 73.12813 263.8948Q73.81563 264.66043 73.81563 265.97293Q73.81563 267.28543 73.09688 268.05106Q72.39375 268.81668 71.1125 268.81668Q69.9875 268.81668 69.26875 268.19168Q68.55 267.55106 68.45625 266.44168L69.47188 266.44168Q69.58125 267.17606 70.00313 267.55106Q70.425 267.92606 71.1125 267.92606Q71.8625 267.92606 72.3 267.41043Q72.7375 266.8948 72.7375 265.98856Q72.7375 265.12918 72.26875 264.61356Q71.8 264.09793 71.01875 264.09793Q70.31563 264.09793 69.90938 264.3948L69.62813 264.62918L68.75313 264.41043ZM80.6125 265.05106Q80.6125 266.9573 79.95625 267.8948Q79.31563 268.81668 77.925 268.81668Q76.56563 268.81668 75.90938 267.91043Q75.25313 267.00418 75.22188 265.19168L75.22188 263.75418Q75.22188 261.86356 75.8625 260.9573Q76.51875 260.03543 77.90938 260.03543Q79.28438 260.03543 79.94063 260.92606Q80.59688 261.80106 80.6125 263.6448L80.6125 265.05106ZM79.51875 263.56668Q79.51875 262.19168 79.12813 261.56668Q78.75313 260.92606 77.90938 260.92606Q77.08125 260.92606 76.69063 261.56668Q76.31563 262.19168 76.31563 263.48856L76.31563 265.22293Q76.31563 266.59793 76.70625 267.2698Q77.1125 267.92606 77.925 267.92606Q78.72188 267.92606 79.1125 267.30106Q79.50313 266.67606 79.51875 265.34793L79.51875 263.56668ZM87.6125 265.05106Q87.6125 266.9573 86.95625 267.8948Q86.31563 268.81668 84.925 268.81668Q83.56563 268.81668 82.90938 267.91043Q82.25313 267.00418 82.22188 265.19168L82.22188 263.75418Q82.22188 261.86356 82.8625 260.9573Q83.51875 260.03543 84.90938 260.03543Q86.28438 260.03543 86.94063 260.92606Q87.59688 261.80106 87.6125 263.6448L87.6125 265.05106ZM86.51875 263.56668Q86.51875 262.19168 86.12813 261.56668Q85.75313 260.92606 84.90938 260.92606Q84.08125 260.92606 83.69063 261.56668Q83.31563 262.19168 83.31563 263.48856L83.31563 265.22293Q83.31563 266.59793 83.70625 267.2698Q84.1125 267.92606 84.925 267.92606Q85.72188 267.92606 86.1125 267.30106Q86.50313 266.67606 86.51875 265.34793L86.51875 263.56668Z" fill-rule="nonzero"/><path fill="#757575" d="M59.753124 197.15208L60.190624 192.90208L64.56563 192.90208L64.56563 193.90208L61.1125 193.90208L60.846874 196.23021Q61.4875 195.85521 62.284374 195.85521Q63.440624 195.85521 64.12813 196.63646Q64.81563 197.40208 64.81563 198.71458Q64.81563 200.02708 64.09688 200.79271Q63.39375 201.55833 62.1125 201.55833Q60.9875 201.55833 60.26875 200.93333Q59.55 200.29271 59.45625 199.18333L60.471874 199.18333Q60.58125 199.91771 61.003124 200.29271Q61.425 200.66771 62.1125 200.66771Q62.8625 200.66771 63.3 200.15208Q63.7375 199.63646 63.7375 198.73021Q63.7375 197.87083 63.26875 197.35521Q62.8 196.83958 62.01875 196.83958Q61.315624 196.83958 60.909374 197.13646L60.628124 197.37083L59.753124 197.15208ZM66.33125 203.13646L65.72188 202.71458Q66.26875 201.94896 66.3 201.12083L66.3 200.15208L67.3625 200.15208L67.3625 200.99583Q67.3625 201.58958 67.06563 202.18333Q66.76875 202.77708 66.33125 203.13646ZM73.6125 197.79271Q73.6125 199.69896 72.95625 200.63646Q72.31563 201.55833 70.925 201.55833Q69.56563 201.55833 68.90938 200.65208Q68.25313 199.74583 68.22188 197.93333L68.22188 196.49583Q68.22188 194.60521 68.8625 193.69896Q69.51875 192.77708 70.90938 192.77708Q72.28438 192.77708 72.94063 193.66771Q73.59688 194.54271 73.6125 196.38646L73.6125 197.79271ZM72.51875 196.30833Q72.51875 194.93333 72.12813 194.30833Q71.75313 193.66771 70.90938 193.66771Q70.08125 193.66771 69.69063 194.30833Q69.31563 194.93333 69.31563 196.23021L69.31563 197.96458Q69.31563 199.33958 69.70625 200.01146Q70.1125 200.66771 70.925 200.66771Q71.72188 200.66771 72.1125 200.04271Q72.50313 199.41771 72.51875 198.08958L72.51875 196.30833ZM80.6125 197.79271Q80.6125 199.69896 79.95625 200.63646Q79.31563 201.55833 77.925 201.55833Q76.56563 201.55833 75.90938 200.65208Q75.25313 199.74583 75.22188 197.93333L75.22188 196.49583Q75.22188 194.60521 75.8625 193.69896Q76.51875 192.77708 77.90938 192.77708Q79.28438 192.77708 79.94063 193.66771Q80.59688 194.54271 80.6125 196.38646L80.6125 197.79271ZM79.51875 196.30833Q79.51875 194.93333 79.12813 194.30833Q78.75313 193.66771 77.90938 193.66771Q77.08125 193.66771 76.69063 194.30833Q76.31563 194.93333 76.31563 196.23021L76.31563 197.96458Q76.31563 199.33958 76.70625 200.01146Q77.1125 200.66771 77.925 200.66771Q78.72188 200.66771 79.1125 200.04271Q79.50313 199.41771 79.51875 198.08958L79.51875 196.30833ZM87.6125 197.79271Q87.6125 199.69896 86.95625 200.63646Q86.31563 201.55833 84.925 201.55833Q83.56563 201.55833 82.90938 200.65208Q82.25313 199.74583 82.22188 197.93333L82.22188 196.49583Q82.22188 194.60521 82.8625 193.69896Q83.51875 192.77708 84.90938 192.77708Q86.28438 192.77708 86.94063 193.66771Q87.59688 194.54271 87.6125 196.38646L87.6125 197.79271ZM86.51875 196.30833Q86.51875 194.93333 86.12813 194.30833Q85.75313 193.66771 84.90938 193.66771Q84.08125 193.66771 83.69063 194.30833Q83.31563 194.93333 83.31563 196.23021L83.31563 197.96458Q83.31563 199.33958 83.70625 200.01146Q84.1125 200.66771 84.925 200.66771Q85.72188 200.66771 86.1125 200.04271Q86.50313 199.41771 86.51875 198.08958L86.51875 196.30833Z" fill-rule="nonzero"/><path fill="#757575" d="M64.76875 126.25313L61.2375 134.175L60.096874 134.175L63.6125 126.53438L59.003124 126.53438L59.003124 125.64375L64.76875 125.64375L64.76875 126.25313ZM66.33125 135.87813L65.72188 135.45625Q66.26875 134.69063 66.3 133.8625L66.3 132.89375L67.3625 132.89375L67.3625 133.7375Q67.3625 134.33125 67.06563 134.925Q66.76875 135.51875 66.33125 135.87813ZM68.75313 129.89375L69.19063 125.64375L73.56563 125.64375L73.56563 126.64375L70.1125 126.64375L69.84688 128.97188Q70.4875 128.59688 71.28438 128.59688Q72.44063 128.59688 73.12813 129.37813Q73.81563 130.14375 73.81563 131.45625Q73.81563 132.76875 73.09688 133.53438Q72.39375 134.3 71.1125 134.3Q69.9875 134.3 69.26875 133.675Q68.55 133.03438 68.45625 131.925L69.47188 131.925Q69.58125 132.65938 70.00313 133.03438Q70.425 133.40938 71.1125 133.40938Q71.8625 133.40938 72.3 132.89375Q72.7375 132.37813 72.7375 131.47188Q72.7375 130.6125 72.26875 130.09688Q71.8 129.58125 71.01875 129.58125Q70.31563 129.58125 69.90938 129.87813L69.62813 130.1125L68.75313 129.89375ZM80.6125 130.53438Q80.6125 132.44063 79.95625 133.37813Q79.31563 134.3 77.925 134.3Q76.56563 134.3 75.90938 133.39375Q75.25313 132.4875 75.22188 130.675L75.22188 129.2375Q75.22188 127.34688 75.8625 126.44063Q76.51875 125.51875 77.90938 125.51875Q79.28438 125.51875 79.94063 126.40938Q80.59688 127.28438 80.6125 129.12813L80.6125 130.53438ZM79.51875 129.05Q79.51875 127.675 79.12813 127.05Q78.75313 126.40938 77.90938 126.40938Q77.08125 126.40938 76.69063 127.05Q76.31563 127.675 76.31563 128.97188L76.31563 130.70625Q76.31563 132.08125 76.70625 132.75313Q77.1125 133.40938 77.925 133.40938Q78.72188 133.40938 79.1125 132.78438Q79.50313 132.15938 79.51875 130.83125L79.51875 129.05ZM87.6125 130.53438Q87.6125 132.44063 86.95625 133.37813Q86.31563 134.3 84.925 134.3Q83.56563 134.3 82.90938 133.39375Q82.25313 132.4875 82.22188 130.675L82.22188 129.2375Q82.22188 127.34688 82.8625 126.44063Q83.51875 125.51875 84.90938 125.51875Q86.28438 125.51875 86.94063 126.40938Q87.59688 127.28438 87.6125 129.12813L87.6125 130.53438ZM86.51875 129.05Q86.51875 127.675 86.12813 127.05Q85.75313 126.40938 84.90938 126.40938Q84.08125 126.40938 83.69063 127.05Q83.31563 127.675 83.31563 128.97188L83.31563 130.70625Q83.31563 132.08125 83.70625 132.75313Q84.1125 133.40938 84.925 133.40938Q85.72188 133.40938 86.1125 132.78438Q86.50313 132.15938 86.51875 130.83125L86.51875 129.05Z" fill-rule="nonzero"/><path fill="#757575" d="M55.815624 66.916664L54.7375 66.916664L54.7375 59.697914L52.55 60.49479L52.55 59.510414L55.659374 58.33854L55.815624 58.33854L55.815624 66.916664ZM64.6125 63.27604Q64.6125 65.18229 63.95625 66.11979Q63.315624 67.041664 61.925 67.041664Q60.565624 67.041664 59.909374 66.135414Q59.253124 65.229164 59.221874 63.416664L59.221874 61.979164Q59.221874 60.08854 59.8625 59.18229Q60.51875 58.260414 61.909374 58.260414Q63.284374 58.260414 63.940624 59.15104Q64.59688 60.02604 64.6125 61.86979L64.6125 63.27604ZM63.51875 61.791664Q63.51875 60.416664 63.128124 59.791664Q62.753124 59.15104 61.909374 59.15104Q61.08125 59.15104 60.690624 59.791664Q60.315624 60.416664 60.315624 61.71354L60.315624 63.447914Q60.315624 64.822914 60.70625 65.49479Q61.1125 66.15104 61.925 66.15104Q62.721874 66.15104 63.1125 65.52604Q63.503124 64.90104 63.51875 63.572914L63.51875 61.791664ZM66.33125 68.61979L65.72188 68.197914Q66.26875 67.43229 66.3 66.604164L66.3 65.635414L67.3625 65.635414L67.3625 66.479164Q67.3625 67.072914 67.06563 67.666664Q66.76875 68.260414 66.33125 68.61979ZM73.6125 63.27604Q73.6125 65.18229 72.95625 66.11979Q72.31563 67.041664 70.925 67.041664Q69.56563 67.041664 68.90938 66.135414Q68.25313 65.229164 68.22188 63.416664L68.22188 61.979164Q68.22188 60.08854 68.8625 59.18229Q69.51875 58.260414 70.90938 58.260414Q72.28438 58.260414 72.94063 59.15104Q73.59688 60.02604 73.6125 61.86979L73.6125 63.27604ZM72.51875 61.791664Q72.51875 60.416664 72.12813 59.791664Q71.75313 59.15104 70.90938 59.15104Q70.08125 59.15104 69.69063 59.791664Q69.31563 60.416664 69.31563 61.71354L69.31563 63.447914Q69.31563 64.822914 69.70625 65.49479Q70.1125 66.15104 70.925 66.15104Q71.72188 66.15104 72.1125 65.52604Q72.50313 64.90104 72.51875 63.572914L72.51875 61.791664ZM80.6125 63.27604Q80.6125 65.18229 79.95625 66.11979Q79.31563 67.041664 77.925 67.041664Q76.56563 67.041664 75.90938 66.135414Q75.25313 65.229164 75.22188 63.416664L75.22188 61.979164Q75.22188 60.08854 75.8625 59.18229Q76.51875 58.260414 77.90938 58.260414Q79.28438 58.260414 79.94063 59.15104Q80.59688 60.02604 80.6125 61.86979L80.6125 63.27604ZM79.51875 61.791664Q79.51875 60.416664 79.12813 59.791664Q78.75313 59.15104 77.90938 59.15104Q77.08125 59.15104 76.69063 59.791664Q76.31563 60.416664 76.31563 61.71354L76.31563 63.447914Q76.31563 64.822914 76.70625 65.49479Q77.1125 66.15104 77.925 66.15104Q78.72188 66.15104 79.1125 65.52604Q79.50313 64.90104 79.51875 63.572914L79.51875 61.791664ZM87.6125 63.27604Q87.6125 65.18229 86.95625 66.11979Q86.31563 67.041664 84.925 67.041664Q83.56563 67.041664 82.90938 66.135414Q82.25313 65.229164 82.22188 63.416664L82.22188 61.979164Q82.22188 60.08854 82.8625 59.18229Q83.51875 58.260414 84.90938 58.260414Q86.28438 58.260414 86.94063 59.15104Q87.59688 60.02604 87.6125 61.86979L87.6125 63.27604ZM86.51875 61.791664Q86.51875 60.416664 86.12813 59.791664Q85.75313 59.15104 84.90938 59.15104Q84.08125 59.15104 83.69063 59.791664Q83.31563 60.416664 83.31563 61.71354L83.31563 63.447914Q83.31563 64.822914 83.70625 65.49479Q84.1125 66.15104 84.925 66.15104Q85.72188 66.15104 86.1125 65.52604Q86.50313 64.90104 86.51875 63.572914L86.51875 61.791664Z" fill-rule="nonzero"/><path fill="#757575" d="M88.6125 340.91876L89.75313 340.91876L89.75313 346.96564Q89.75313 348.1844 89.00313 348.8875Q88.26875 349.575 87.05 349.575Q85.78438 349.575 85.06563 348.91876Q84.3625 348.2625 84.3625 347.09064L85.4875 347.09064Q85.4875 347.825 85.87813 348.2469Q86.28438 348.65314 87.05 348.65314Q87.75313 348.65314 88.175 348.21564Q88.6125 347.7625 88.6125 346.98126L88.6125 340.91876ZM95.78438 349.45Q95.69063 349.2625 95.62813 348.77814Q94.87813 349.575 93.83125 349.575Q92.89375 349.575 92.28438 349.04376Q91.69063 348.5125 91.69063 347.6844Q91.69063 346.7 92.44063 346.15314Q93.19063 345.60626 94.56563 345.60626L95.6125 345.60626L95.6125 345.10626Q95.6125 344.54376 95.26875 344.21564Q94.94063 343.8719 94.26875 343.8719Q93.69063 343.8719 93.3 344.16876Q92.90938 344.45 92.90938 344.8719L91.81563 344.8719Q91.81563 344.3875 92.14375 343.95Q92.4875 343.5125 93.06563 343.2625Q93.64375 342.9969 94.33125 342.9969Q95.44063 342.9969 96.05 343.54376Q96.675 344.09064 96.70625 345.04376L96.70625 347.96564Q96.70625 348.84064 96.925 349.35626L96.925 349.45L95.78438 349.45ZM93.9875 348.6219Q94.50313 348.6219 94.95625 348.35626Q95.40938 348.09064 95.6125 347.66876L95.6125 346.3719L94.76875 346.3719Q92.76875 346.3719 92.76875 347.54376Q92.76875 348.04376 93.1125 348.34064Q93.45625 348.6219 93.9875 348.6219ZM99.89375 343.10626L99.925 343.90314Q100.65938 342.9969 101.83125 342.9969Q103.84688 342.9969 103.8625 345.2625L103.8625 349.45L102.76875 349.45L102.76875 345.2469Q102.76875 344.575 102.45625 344.2469Q102.15938 343.91876 101.50313 343.91876Q100.97188 343.91876 100.56563 344.2Q100.175 344.48126 99.95625 344.9344L99.95625 349.45L98.87813 349.45L98.87813 343.10626L99.89375 343.10626Z" fill-rule="nonzero"/><path fill="#757575" d="M159.7394 345.6844L156.14565 345.6844L156.14565 349.45L155.02065 349.45L155.02065 340.91876L160.31752 340.91876L160.31752 341.84064L156.14565 341.84064L156.14565 344.7625L159.7394 344.7625L159.7394 345.6844ZM164.4894 349.575Q163.19252 349.575 162.38002 348.73126Q161.58315 347.8719 161.58315 346.45L161.58315 346.2625Q161.58315 345.3094 161.94252 344.575Q162.3019 343.825 162.94252 343.41876Q163.59877 342.9969 164.34877 342.9969Q165.58315 342.9969 166.27065 343.8094Q166.95815 344.6219 166.95815 346.1375L166.95815 346.59064L162.66127 346.59064Q162.69252 347.52814 163.20815 348.10626Q163.7394 348.6844 164.5519 348.6844Q165.1144 348.6844 165.50502 348.45Q165.91127 348.21564 166.22377 347.825L166.88002 348.34064Q166.08315 349.575 164.4894 349.575ZM164.34877 343.8875Q163.69252 343.8875 163.2394 344.3719Q162.8019 344.84064 162.70815 345.7L165.88002 345.7L165.88002 345.6219Q165.83315 344.79376 165.4269 344.34064Q165.03627 343.8875 164.34877 343.8875ZM173.22377 346.35626Q173.22377 347.8094 172.5519 348.7Q171.89565 349.575 170.77065 349.575Q169.56752 349.575 168.91127 348.71564L168.84877 349.45L167.8644 349.45L167.8644 340.45L168.94252 340.45L168.94252 343.8094Q169.59877 342.9969 170.75502 342.9969Q171.91127 342.9969 172.56752 343.8719Q173.22377 344.73126 173.22377 346.2625L173.22377 346.35626ZM172.14565 346.23126Q172.14565 345.1219 171.70815 344.52814Q171.28627 343.91876 170.4894 343.91876Q169.41127 343.91876 168.94252 344.90314L168.94252 347.65314Q169.44252 348.65314 170.4894 348.65314Q171.27065 348.65314 171.70815 348.04376Q172.14565 347.4344 172.14565 346.23126Z" fill-rule="nonzero"/><path fill="#757575" d="M220.97705 340.91876L223.77393 347.8719L226.55518 340.91876L228.02393 340.91876L228.02393 349.45L226.89893 349.45L226.89893 346.1219L227.0083 342.54376L224.1958 349.45L223.33643 349.45L220.53955 342.5594L220.64893 346.1219L220.64893 349.45L219.52393 349.45L219.52393 340.91876L220.97705 340.91876ZM233.27393 349.45Q233.18018 349.2625 233.11768 348.77814Q232.36768 349.575 231.3208 349.575Q230.3833 349.575 229.77393 349.04376Q229.18018 348.5125 229.18018 347.6844Q229.18018 346.7 229.93018 346.15314Q230.68018 345.60626 232.05518 345.60626L233.10205 345.60626L233.10205 345.10626Q233.10205 344.54376 232.7583 344.21564Q232.43018 343.8719 231.7583 343.8719Q231.18018 343.8719 230.78955 344.16876Q230.39893 344.45 230.39893 344.8719L229.30518 344.8719Q229.30518 344.3875 229.6333 343.95Q229.97705 343.5125 230.55518 343.2625Q231.1333 342.9969 231.8208 342.9969Q232.93018 342.9969 233.53955 343.54376Q234.16455 344.09064 234.1958 345.04376L234.1958 347.96564Q234.1958 348.84064 234.41455 349.35626L234.41455 349.45L233.27393 349.45ZM231.47705 348.6219Q231.99268 348.6219 232.4458 348.35626Q232.89893 348.09064 233.10205 347.66876L233.10205 346.3719L232.2583 346.3719Q230.2583 346.3719 230.2583 347.54376Q230.2583 348.04376 230.60205 348.34064Q230.9458 348.6219 231.47705 348.6219ZM239.43018 344.075Q239.18018 344.04376 238.89893 344.04376Q237.8208 344.04376 237.4458 344.95L237.4458 349.45L236.36768 349.45L236.36768 343.10626L237.41455 343.10626L237.43018 343.84064Q237.96143 342.9969 238.9458 342.9969Q239.2583 342.9969 239.43018 343.075L239.43018 344.075Z" fill-rule="nonzero"/><path fill="#757575" d="M294.72894 347.21564L291.15082 347.21564L290.35394 349.45L289.1977 349.45L292.4477 340.91876L293.43207 340.91876L296.6977 349.45L295.54144 349.45L294.72894 347.21564ZM291.49457 346.29376L294.40082 346.29376L292.9477 342.3094L291.49457 346.29376ZM303.1977 346.35626Q303.1977 347.79376 302.54144 348.6844Q301.8852 349.575 300.74457 349.575Q299.58832 349.575 298.93207 348.84064L298.93207 351.8875L297.85394 351.8875L297.85394 343.10626L298.83832 343.10626L298.8852 343.8094Q299.55707 342.9969 300.72894 342.9969Q301.86957 342.9969 302.52582 343.85626Q303.1977 344.71564 303.1977 346.2469L303.1977 346.35626ZM302.11957 346.23126Q302.11957 345.15314 301.65082 344.54376Q301.1977 343.91876 300.40082 343.91876Q299.41644 343.91876 298.93207 344.77814L298.93207 347.8094Q299.41644 348.6844 300.41644 348.6844Q301.1977 348.6844 301.65082 348.075Q302.11957 347.45 302.11957 346.23126ZM307.91644 344.075Q307.66644 344.04376 307.3852 344.04376Q306.30707 344.04376 305.93207 344.95L305.93207 349.45L304.85394 349.45L304.85394 343.10626L305.90082 343.10626L305.91644 343.84064Q306.4477 342.9969 307.43207 342.9969Q307.74457 342.9969 307.91644 343.075L307.91644 344.075Z" fill-rule="nonzero"/><path fill="#757575" d="M356.7081 340.91876L359.50497 347.8719L362.28622 340.91876L363.75497 340.91876L363.75497 349.45L362.62997 349.45L362.62997 346.1219L362.73935 342.54376L359.92685 349.45L359.06747 349.45L356.2706 342.5594L356.37997 346.1219L356.37997 349.45L355.25497 349.45L355.25497 340.91876L356.7081 340.91876ZM369.00497 349.45Q368.91122 349.2625 368.84872 348.77814Q368.09872 349.575 367.05185 349.575Q366.11435 349.575 365.50497 349.04376Q364.91122 348.5125 364.91122 347.6844Q364.91122 346.7 365.66122 346.15314Q366.41122 345.60626 367.78622 345.60626L368.8331 345.60626L368.8331 345.10626Q368.8331 344.54376 368.48935 344.21564Q368.16122 343.8719 367.48935 343.8719Q366.91122 343.8719 366.5206 344.16876Q366.12997 344.45 366.12997 344.8719L365.03622 344.8719Q365.03622 344.3875 365.36435 343.95Q365.7081 343.5125 366.28622 343.2625Q366.86435 342.9969 367.55185 342.9969Q368.66122 342.9969 369.2706 343.54376Q369.8956 344.09064 369.92685 345.04376L369.92685 347.96564Q369.92685 348.84064 370.1456 349.35626L370.1456 349.45L369.00497 349.45ZM367.2081 348.6219Q367.72372 348.6219 368.17685 348.35626Q368.62997 348.09064 368.8331 347.66876L368.8331 346.3719L367.98935 346.3719Q365.98935 346.3719 365.98935 347.54376Q365.98935 348.04376 366.3331 348.34064Q366.67685 348.6219 367.2081 348.6219ZM374.16122 347.85626L375.6456 343.10626L376.80185 343.10626L374.25497 350.4344Q373.66122 352.0125 372.37997 352.0125L372.16122 351.9969L371.7706 351.91876L371.7706 351.04376L372.05185 351.0594Q372.61435 351.0594 372.91122 350.84064Q373.22372 350.6219 373.42685 350.02814L373.66122 349.3719L371.3956 343.10626L372.5831 343.10626L374.16122 347.85626Z" fill-rule="nonzero"/><path fill="#757575" d="M429.31937 340.91876L430.46 340.91876L430.46 346.96564Q430.46 348.1844 429.71 348.8875Q428.97562 349.575 427.75687 349.575Q426.49124 349.575 425.7725 348.91876Q425.06937 348.2625 425.06937 347.09064L426.19437 347.09064Q426.19437 347.825 426.585 348.2469Q426.99124 348.65314 427.75687 348.65314Q428.46 348.65314 428.88187 348.21564Q429.31937 347.7625 429.31937 346.98126L429.31937 340.91876ZM436.49124 348.825Q435.86624 349.575 434.63187 349.575Q433.61624 349.575 433.085 348.98126Q432.55374 348.3875 432.55374 347.23126L432.55374 343.10626L433.63187 343.10626L433.63187 347.2Q433.63187 348.65314 434.80374 348.65314Q436.05374 348.65314 436.46 347.71564L436.46 343.10626L437.55374 343.10626L437.55374 349.45L436.5225 349.45L436.49124 348.825ZM440.60062 343.10626L440.63187 343.90314Q441.36624 342.9969 442.53812 342.9969Q444.55374 342.9969 444.56937 345.2625L444.56937 349.45L443.47562 349.45L443.47562 345.2469Q443.47562 344.575 443.16312 344.2469Q442.86624 343.91876 442.21 343.91876Q441.67874 343.91876 441.2725 344.2Q440.88187 344.48126 440.66312 344.9344L440.66312 349.45L439.585 349.45L439.585 343.10626L440.60062 343.10626Z" fill-rule="nonzero"/><path fill="#757575" d="M498.56415 340.91876L499.70477 340.91876L499.70477 346.96564Q499.70477 348.1844 498.95477 348.8875Q498.2204 349.575 497.00165 349.575Q495.73602 349.575 495.01727 348.91876Q494.31415 348.2625 494.31415 347.09064L495.43915 347.09064Q495.43915 347.825 495.82977 348.2469Q496.23602 348.65314 497.00165 348.65314Q497.70477 348.65314 498.12665 348.21564Q498.56415 347.7625 498.56415 346.98126L498.56415 340.91876ZM505.73602 348.825Q505.11102 349.575 503.87665 349.575Q502.86102 349.575 502.32977 348.98126Q501.79852 348.3875 501.79852 347.23126L501.79852 343.10626L502.87665 343.10626L502.87665 347.2Q502.87665 348.65314 504.04852 348.65314Q505.29852 348.65314 505.70477 347.71564L505.70477 343.10626L506.79852 343.10626L506.79852 349.45L505.76727 349.45L505.73602 348.825ZM510.00165 349.45L508.92352 349.45L508.92352 340.45L510.00165 340.45L510.00165 349.45Z" fill-rule="nonzero"/><path fill="#757575" d="M566.69104 347.21564L563.1129 347.21564L562.31604 349.45L561.1598 349.45L564.4098 340.91876L565.39417 340.91876L568.6598 349.45L567.50354 349.45L566.69104 347.21564ZM563.45667 346.29376L566.3629 346.29376L564.9098 342.3094L563.45667 346.29376ZM573.7223 348.825Q573.0973 349.575 571.8629 349.575Q570.8473 349.575 570.31604 348.98126Q569.7848 348.3875 569.7848 347.23126L569.7848 343.10626L570.8629 343.10626L570.8629 347.2Q570.8629 348.65314 572.0348 348.65314Q573.2848 348.65314 573.69104 347.71564L573.69104 343.10626L574.7848 343.10626L574.7848 349.45L573.75354 349.45L573.7223 348.825ZM576.5504 346.23126Q576.5504 344.7469 577.2379 343.8719Q577.9254 342.9969 579.0504 342.9969Q580.20667 342.9969 580.8629 343.8094L580.9098 343.10626L581.9098 343.10626L581.9098 349.29376Q581.9098 350.52814 581.1754 351.23126Q580.44104 351.95 579.2223 351.95Q578.5348 351.95 577.87854 351.65314Q577.2223 351.35626 576.87854 350.85626L577.44104 350.2Q578.12854 351.0594 579.14417 351.0594Q579.9254 351.0594 580.3629 350.60626Q580.81604 350.16876 580.81604 349.35626L580.81604 348.8094Q580.1598 349.575 579.0348 349.575Q577.9254 349.575 577.2379 348.6844Q576.5504 347.77814 576.5504 346.23126ZM577.64417 346.35626Q577.64417 347.41876 578.08167 348.04376Q578.51917 348.65314 579.31604 348.65314Q580.33167 348.65314 580.81604 347.71564L580.81604 344.825Q580.31604 343.91876 579.31604 343.91876Q578.5348 343.91876 578.08167 344.52814Q577.64417 345.1375 577.64417 346.35626Z" fill-rule="nonzero"/><path fill="#757575" d="M632.9742 345.65314Q631.5367 345.23126 630.8648 344.6219Q630.20856 344.0125 630.20856 343.1219Q630.20856 342.1219 631.00543 341.46564Q631.81793 340.79376 633.1148 340.79376Q633.9898 340.79376 634.6773 341.1375Q635.3648 341.48126 635.7398 342.075Q636.13043 342.66876 636.13043 343.3875L634.9898 343.3875Q634.9898 342.60626 634.4898 342.16876Q634.00543 341.73126 633.1148 341.73126Q632.2867 341.73126 631.81793 342.10626Q631.3492 342.46564 631.3492 343.10626Q631.3492 343.6375 631.7867 343.9969Q632.2398 344.35626 633.3023 344.65314Q634.3648 344.95 634.95856 345.3094Q635.56793 345.66876 635.8492 346.15314Q636.14606 346.6375 636.14606 347.27814Q636.14606 348.325 635.33356 348.95Q634.52106 349.575 633.1773 349.575Q632.2867 349.575 631.52106 349.23126Q630.77106 348.8875 630.3492 348.3094Q629.94293 347.71564 629.94293 346.98126L631.06793 346.98126Q631.06793 347.7469 631.64606 348.2Q632.2242 348.65314 633.1773 348.65314Q634.06793 348.65314 634.5367 348.29376Q635.00543 347.91876 635.00543 347.29376Q635.00543 346.66876 634.56793 346.325Q634.13043 345.98126 632.9742 345.65314ZM639.9273 349.575Q638.63043 349.575 637.81793 348.73126Q637.02106 347.8719 637.02106 346.45L637.02106 346.2625Q637.02106 345.3094 637.38043 344.575Q637.7398 343.825 638.38043 343.41876Q639.0367 342.9969 639.7867 342.9969Q641.02106 342.9969 641.70856 343.8094Q642.39606 344.6219 642.39606 346.1375L642.39606 346.59064L638.0992 346.59064Q638.13043 347.52814 638.64606 348.10626Q639.1773 348.6844 639.9898 348.6844Q640.5523 348.6844 640.94293 348.45Q641.3492 348.21564 641.6617 347.825L642.31793 348.34064Q641.52106 349.575 639.9273 349.575ZM639.7867 343.8875Q639.13043 343.8875 638.6773 344.3719Q638.2398 344.84064 638.14606 345.7L641.31793 345.7L641.31793 345.6219Q641.27106 344.79376 640.8648 344.34064Q640.4742 343.8875 639.7867 343.8875ZM648.64606 346.35626Q648.64606 347.79376 647.9898 348.6844Q647.33356 349.575 646.19293 349.575Q645.0367 349.575 644.38043 348.84064L644.38043 351.8875L643.3023 351.8875L643.3023 343.10626L644.2867 343.10626L644.33356 343.8094Q645.00543 342.9969 646.1773 342.9969Q647.31793 342.9969 647.9742 343.85626Q648.64606 344.71564 648.64606 346.2469L648.64606 346.35626ZM647.56793 346.23126Q647.56793 345.15314 647.0992 344.54376Q646.64606 343.91876 645.8492 343.91876Q644.8648 343.91876 644.38043 344.77814L644.38043 347.8094Q644.8648 348.6844 645.8648 348.6844Q646.64606 348.6844 647.0992 348.075Q647.56793 347.45 647.56793 346.23126ZM651.77106 341.575L651.77106 343.10626L652.94293 343.10626L652.94293 343.95L651.77106 343.95L651.77106 347.8719Q651.77106 348.2625 651.9273 348.45Q652.08356 348.6375 652.45856 348.6375Q652.64606 348.6375 652.9742 348.575L652.9742 349.45Q652.5523 349.575 652.14606 349.575Q651.4273 349.575 651.0523 349.1375Q650.6773 348.6844 650.6773 347.8719L650.6773 343.95L649.52106 343.95L649.52106 343.10626L650.6773 343.10626L650.6773 341.575L651.77106 341.575Z" fill-rule="nonzero"/><path fill="#757575" d="M707.2658 345.46564Q707.2658 346.71564 706.84393 347.65314Q706.42206 348.575 705.6408 349.075Q704.8752 349.575 703.84393 349.575Q702.84393 349.575 702.0627 349.075Q701.28143 348.575 700.84393 347.66876Q700.42206 346.7469 700.40643 345.52814L700.40643 344.91876Q700.40643 343.6844 700.8283 342.7469Q701.2658 341.8094 702.04706 341.3094Q702.8283 340.79376 703.84393 340.79376Q704.85956 340.79376 705.6408 341.29376Q706.42206 341.79376 706.84393 342.73126Q707.2658 343.66876 707.2658 344.91876L707.2658 345.46564ZM706.15643 344.90314Q706.15643 343.3875 705.54706 342.575Q704.9377 341.7625 703.84393 341.7625Q702.7658 341.7625 702.15643 342.575Q701.54706 343.3875 701.53143 344.825L701.53143 345.46564Q701.53143 346.9344 702.1408 347.77814Q702.7658 348.60626 703.84393 348.60626Q704.9377 348.60626 705.53143 347.825Q706.1408 347.02814 706.15643 345.54376L706.15643 344.90314ZM711.0783 348.6844Q711.65643 348.6844 712.09393 348.34064Q712.53143 347.98126 712.5783 347.45L713.60956 347.45Q713.5783 347.9969 713.21893 348.4969Q712.8752 348.98126 712.29706 349.27814Q711.73456 349.575 711.0783 349.575Q709.78143 349.575 709.0158 348.71564Q708.2658 347.84064 708.2658 346.34064L708.2658 346.15314Q708.2658 345.23126 708.59393 344.5125Q708.9377 343.79376 709.5627 343.40314Q710.2033 342.9969 711.0783 342.9969Q712.1408 342.9969 712.84393 343.6375Q713.5627 344.2625 713.60956 345.29376L712.5783 345.29376Q712.53143 344.66876 712.10956 344.27814Q711.6877 343.8875 711.0783 343.8875Q710.2502 343.8875 709.79706 344.48126Q709.34393 345.075 709.34393 346.2L709.34393 346.40314Q709.34393 347.4969 709.79706 348.09064Q710.2502 348.6844 711.0783 348.6844ZM716.0158 341.575L716.0158 343.10626L717.1877 343.10626L717.1877 343.95L716.0158 343.95L716.0158 347.8719Q716.0158 348.2625 716.17206 348.45Q716.3283 348.6375 716.7033 348.6375Q716.8908 348.6375 717.21893 348.575L717.21893 349.45Q716.79706 349.575 716.3908 349.575Q715.67206 349.575 715.29706 349.1375Q714.92206 348.6844 714.92206 347.8719L714.92206 343.95L713.7658 343.95L713.7658 343.10626L714.92206 343.10626L714.92206 341.575L716.0158 341.575Z" fill-rule="nonzero"/><path fill="#757575" d="M774.7521 349.45L773.6271 349.45L769.3302 342.8719L769.3302 349.45L768.1896 349.45L768.1896 340.91876L769.3302 340.91876L773.6271 347.52814L773.6271 340.91876L774.7521 340.91876L774.7521 349.45ZM776.73645 346.21564Q776.73645 345.29376 777.0958 344.54376Q777.4708 343.79376 778.1271 343.40314Q778.7833 342.9969 779.61145 342.9969Q780.9083 342.9969 781.7052 343.8875Q782.5177 344.77814 782.5177 346.27814L782.5177 346.35626Q782.5177 347.27814 782.1583 348.0125Q781.79895 348.7469 781.1427 349.16876Q780.48645 349.575 779.6271 349.575Q778.3458 349.575 777.5333 348.6844Q776.73645 347.77814 776.73645 346.29376L776.73645 346.21564ZM777.8302 346.35626Q777.8302 347.40314 778.3146 348.04376Q778.8146 348.6844 779.6271 348.6844Q780.4552 348.6844 780.9396 348.04376Q781.42395 347.3875 781.42395 346.21564Q781.42395 345.1844 780.92395 344.54376Q780.4396 343.8875 779.61145 343.8875Q778.8146 343.8875 778.3146 344.52814Q777.8302 345.15314 777.8302 346.35626ZM786.11145 347.98126L787.6896 343.10626L788.79895 343.10626L786.5177 349.45L785.6896 349.45L783.3927 343.10626L784.5021 343.10626L786.11145 347.98126Z" fill-rule="nonzero"/><path fill="#757575" d="M836.4344 349.45L836.4344 340.91876L838.85626 340.91876Q839.96564 340.91876 840.8094 341.41876Q841.66876 341.90314 842.1375 342.8094Q842.60626 343.71564 842.60626 344.90314L842.60626 345.4344Q842.60626 346.65314 842.1375 347.5594Q841.6844 348.46564 840.8094 348.95Q839.95 349.4344 838.8094 349.45L836.4344 349.45ZM837.5594 341.84064L837.5594 348.52814L838.7469 348.52814Q840.04376 348.52814 840.7625 347.73126Q841.4969 346.91876 841.4969 345.41876L841.4969 344.91876Q841.4969 343.46564 840.8094 342.66876Q840.1375 341.85626 838.8719 341.84064L837.5594 341.84064ZM846.90314 349.575Q845.60626 349.575 844.79376 348.73126Q843.9969 347.8719 843.9969 346.45L843.9969 346.2625Q843.9969 345.3094 844.35626 344.575Q844.71564 343.825 845.35626 343.41876Q846.0125 342.9969 846.7625 342.9969Q847.9969 342.9969 848.6844 343.8094Q849.3719 344.6219 849.3719 346.1375L849.3719 346.59064L845.075 346.59064Q845.10626 347.52814 845.6219 348.10626Q846.15314 348.6844 846.96564 348.6844Q847.52814 348.6844 847.91876 348.45Q848.325 348.21564 848.6375 347.825L849.29376 348.34064Q848.4969 349.575 846.90314 349.575ZM846.7625 343.8875Q846.10626 343.8875 845.65314 344.3719Q845.21564 344.84064 845.1219 345.7L848.29376 345.7L848.29376 345.6219Q848.2469 344.79376 847.84064 344.34064Q847.45 343.8875 846.7625 343.8875ZM852.8094 348.6844Q853.3875 348.6844 853.825 348.34064Q854.2625 347.98126 854.3094 347.45L855.34064 347.45Q855.3094 347.9969 854.95 348.4969Q854.60626 348.98126 854.02814 349.27814Q853.46564 349.575 852.8094 349.575Q851.5125 349.575 850.7469 348.71564Q849.9969 347.84064 849.9969 346.34064L849.9969 346.15314Q849.9969 345.23126 850.325 344.5125Q850.66876 343.79376 851.29376 343.40314Q851.9344 342.9969 852.8094 342.9969Q853.8719 342.9969 854.575 343.6375Q855.29376 344.2625 855.34064 345.29376L854.3094 345.29376Q854.2625 344.66876 853.84064 344.27814Q853.41876 343.8875 852.8094 343.8875Q851.98126 343.8875 851.52814 344.48126Q851.075 345.075 851.075 346.2L851.075 346.40314Q851.075 347.4969 851.52814 348.09064Q851.98126 348.6844 852.8094 348.6844Z" fill-rule="nonzero"/><path fill="#757575" d="M30.20625 23.33125L30.20625 33.003124Q30.20625 35.003124 28.940624 36.284374Q27.690624 37.565624 25.55 37.721874L25.05 37.753124Q22.70625 37.753124 21.315624 36.4875Q19.940624 35.221874 19.925 33.01875L19.925 23.33125L21.76875 23.33125L21.76875 32.95625Q21.76875 34.503124 22.6125 35.3625Q23.471874 36.20625 25.05 36.20625Q26.64375 36.20625 27.4875 35.3625Q28.33125 34.51875 28.33125 32.971874L28.33125 23.33125L30.20625 23.33125ZM39.065624 34.753124Q39.065624 34.01875 38.51875 33.6125Q37.971874 33.20625 36.596874 32.909374Q35.221874 32.6125 34.409374 32.20625Q33.6125 31.8 33.221874 31.2375Q32.846874 30.659374 32.846874 29.878124Q32.846874 28.58125 33.940624 27.690624Q35.034374 26.784374 36.753124 26.784374Q38.55 26.784374 39.659374 27.721874Q40.784374 28.64375 40.784374 30.08125L38.95625 30.08125Q38.95625 29.346874 38.33125 28.815624Q37.70625 28.26875 36.753124 28.26875Q35.753124 28.26875 35.190624 28.70625Q34.64375 29.128124 34.64375 29.83125Q34.64375 30.471874 35.159374 30.815624Q35.675 31.14375 37.034374 31.45625Q38.39375 31.753124 39.221874 32.175Q40.065624 32.58125 40.471874 33.175Q40.878124 33.76875 40.878124 34.6125Q40.878124 36.034374 39.7375 36.89375Q38.6125 37.753124 36.8 37.753124Q35.534374 37.753124 34.55 37.3Q33.58125 36.846874 33.01875 36.05Q32.471874 35.2375 32.471874 34.3L34.284374 34.3Q34.33125 35.20625 35.003124 35.7375Q35.690624 36.26875 36.8 36.26875Q37.83125 36.26875 38.440624 35.8625Q39.065624 35.440624 39.065624 34.753124ZM47.3 37.753124Q45.159374 37.753124 43.8 36.346874Q42.45625 34.925 42.45625 32.565624L42.45625 32.221874Q42.45625 30.659374 43.05 29.425Q43.659374 28.190624 44.7375 27.4875Q45.815624 26.784374 47.08125 26.784374Q49.14375 26.784374 50.284374 28.14375Q51.425 29.503124 51.425 32.034374L51.425 32.784374L44.26875 32.784374Q44.3 34.346874 45.175 35.315624Q46.05 36.26875 47.39375 36.26875Q48.3625 36.26875 49.01875 35.878124Q49.690624 35.4875 50.190624 34.846874L51.284374 35.70625Q49.95625 37.753124 47.3 37.753124ZM47.08125 28.26875Q45.9875 28.26875 45.2375 29.065624Q44.503124 29.8625 44.33125 31.3L49.6125 31.3L49.6125 31.159374Q49.534374 29.784374 48.8625 29.034374Q48.20625 28.26875 47.08125 28.26875ZM59.01875 28.596874Q58.6125 28.534374 58.14375 28.534374Q56.3625 28.534374 55.721874 30.05L55.721874 37.55L53.925 37.55L53.925 26.9875L55.675 26.9875L55.70625 28.20625Q56.596874 26.784374 58.221874 26.784374Q58.753124 26.784374 59.01875 26.925L59.01875 28.596874ZM67.06563 34.753124Q67.06563 34.01875 66.51875 33.6125Q65.97188 33.20625 64.59688 32.909374Q63.221874 32.6125 62.409374 32.20625Q61.6125 31.8 61.221874 31.2375Q60.846874 30.659374 60.846874 29.878124Q60.846874 28.58125 61.940624 27.690624Q63.034374 26.784374 64.75313 26.784374Q66.55 26.784374 67.65938 27.721874Q68.78438 28.64375 68.78438 30.08125L66.95625 30.08125Q66.95625 29.346874 66.33125 28.815624Q65.70625 28.26875 64.75313 28.26875Q63.753124 28.26875 63.190624 28.70625Q62.64375 29.128124 62.64375 29.83125Q62.64375 30.471874 63.159374 30.815624Q63.675 31.14375 65.03438 31.45625Q66.39375 31.753124 67.22188 32.175Q68.06563 32.58125 68.47188 33.175Q68.87813 33.76875 68.87813 34.6125Q68.87813 36.034374 67.7375 36.89375Q66.6125 37.753124 64.8 37.753124Q63.534374 37.753124 62.55 37.3Q61.58125 36.846874 61.01875 36.05Q60.471874 35.2375 60.471874 34.3L62.284374 34.3Q62.33125 35.20625 63.003124 35.7375Q63.690624 36.26875 64.8 36.26875Q65.83125 36.26875 66.44063 35.8625Q67.06563 35.440624 67.06563 34.753124ZM84.8625 32.378124Q84.8625 34.8 83.75313 36.284374Q82.64375 37.753124 80.76875 37.753124Q78.75313 37.753124 77.65938 36.33125L77.58125 37.55L75.925 37.55L75.925 22.55L77.72188 22.55L77.72188 28.14375Q78.81563 26.784374 80.7375 26.784374Q82.65938 26.784374 83.75313 28.2375Q84.8625 29.690624 84.8625 32.221874L84.8625 32.378124ZM83.05 32.175Q83.05 30.33125 82.33125 29.33125Q81.62813 28.315624 80.3 28.315624Q78.50313 28.315624 77.72188 29.9875L77.72188 34.55Q78.55 36.20625 80.31563 36.20625Q81.6125 36.20625 82.33125 35.20625Q83.05 34.20625 83.05 32.175ZM90.37813 34.909374L92.83125 26.9875L94.76875 26.9875L90.51875 39.175Q89.53438 41.815624 87.39375 41.815624L87.05 41.784374L86.37813 41.659374L86.37813 40.190624L86.8625 40.2375Q87.78438 40.2375 88.28438 39.8625Q88.8 39.4875 89.12813 38.503124L89.53438 37.425L85.76875 26.9875L87.7375 26.9875L90.37813 34.909374ZM102.6125 26.9875L102.65938 28.159374Q103.83125 26.784374 105.8 26.784374Q108.01875 26.784374 108.81563 28.4875Q109.34688 27.721874 110.19063 27.253124Q111.03438 26.784374 112.19063 26.784374Q115.65938 26.784374 115.72188 30.471874L115.72188 37.55L113.90938 37.55L113.90938 30.58125Q113.90938 29.440624 113.39375 28.878124Q112.87813 28.315624 111.65938 28.315624Q110.65938 28.315624 109.9875 28.925Q109.33125 29.51875 109.22188 30.534374L109.22188 37.55L107.40938 37.55L107.40938 30.628124Q107.40938 28.315624 105.14375 28.315624Q103.3625 28.315624 102.72188 29.83125L102.72188 37.55L100.90938 37.55L100.90938 26.9875L102.6125 26.9875ZM118.44063 32.175Q118.44063 30.6125 119.05 29.378124Q119.65938 28.128124 120.7375 27.45625Q121.83125 26.784374 123.2375 26.784374Q125.39375 26.784374 126.72188 28.284374Q128.06563 29.76875 128.06563 32.253124L128.06563 32.378124Q128.06563 33.925 127.47188 35.159374Q126.87813 36.378124 125.76875 37.065624Q124.675 37.753124 123.25313 37.753124Q121.1125 37.753124 119.76875 36.253124Q118.44063 34.753124 118.44063 32.3L118.44063 32.175ZM120.25313 32.378124Q120.25313 34.14375 121.06563 35.20625Q121.89375 36.26875 123.25313 36.26875Q124.62813 36.26875 125.44063 35.190624Q126.25313 34.1125 126.25313 32.175Q126.25313 30.425 125.425 29.346874Q124.59688 28.26875 123.2375 28.26875Q121.89375 28.26875 121.06563 29.33125Q120.25313 30.39375 120.25313 32.378124ZM131.62813 26.9875L131.69063 28.315624Q132.89375 26.784374 134.84688 26.784374Q138.20625 26.784374 138.22188 30.565624L138.22188 37.55L136.425 37.55L136.425 30.55Q136.40938 29.409374 135.89375 28.8625Q135.39375 28.315624 134.3 28.315624Q133.425 28.315624 132.75313 28.784374Q132.09688 29.253124 131.72188 30.01875L131.72188 37.55L129.925 37.55L129.925 26.9875L131.62813 26.9875ZM143.3625 24.425L143.3625 26.9875L145.34688 26.9875L145.34688 28.378124L143.3625 28.378124L143.3625 34.925Q143.3625 35.565624 143.62813 35.89375Q143.89375 36.20625 144.53438 36.20625Q144.84688 36.20625 145.39375 36.08125L145.39375 37.55Q144.675 37.753124 144.00313 37.753124Q142.8 37.753124 142.175 37.01875Q141.56563 36.284374 141.56563 34.925L141.56563 28.378124L139.64375 28.378124L139.64375 26.9875L141.56563 26.9875L141.56563 24.425L143.3625 24.425ZM149.72188 28.26875Q150.925 26.784374 152.84688 26.784374Q156.20625 26.784374 156.22188 30.565624L156.22188 37.55L154.425 37.55L154.425 30.55Q154.40938 29.409374 153.89375 28.8625Q153.39375 28.315624 152.3 28.315624Q151.425 28.315624 150.75313 28.784374Q150.09688 29.253124 149.72188 30.01875L149.72188 37.55L147.925 37.55L147.925 22.55L149.72188 22.55L149.72188 28.26875ZM165.87813 37.55L164.08125 37.55L164.08125 26.9875L165.87813 26.9875L165.87813 37.55ZM163.925 24.175Q163.925 23.7375 164.19063 23.440624Q164.47188 23.128124 164.9875 23.128124Q165.51875 23.128124 165.78438 23.440624Q166.06563 23.7375 166.06563 24.175Q166.06563 24.6125 165.78438 24.909374Q165.51875 25.20625 164.9875 25.20625Q164.47188 25.20625 164.19063 24.909374Q163.925 24.6125 163.925 24.175ZM170.62813 26.9875L170.69063 28.315624Q171.89375 26.784374 173.84688 26.784374Q177.20625 26.784374 177.22188 30.565624L177.22188 37.55L175.425 37.55L175.425 30.55Q175.40938 29.409374 174.89375 28.8625Q174.39375 28.315624 173.3 28.315624Q172.425 28.315624 171.75313 28.784374Q171.09688 29.253124 170.72188 30.01875L170.72188 37.55L168.925 37.55L168.925 26.9875L170.62813 26.9875ZM194.05 37.55L184.7375 37.55L184.7375 36.253124L189.65938 30.784374Q190.75313 29.534374 191.15938 28.76875Q191.58125 27.9875 191.58125 27.159374Q191.58125 26.05 190.90938 25.33125Q190.2375 24.6125 189.1125 24.6125Q187.75313 24.6125 187.00313 25.39375Q186.26875 26.159374 186.26875 27.51875L184.45625 27.51875Q184.45625 25.55 185.72188 24.346874Q186.9875 23.128124 189.1125 23.128124Q191.09688 23.128124 192.2375 24.175Q193.39375 25.221874 193.39375 26.940624Q193.39375 29.05 190.72188 31.940624L186.90938 36.08125L194.05 36.08125L194.05 37.55ZM204.64375 31.4875Q204.64375 34.659374 203.56563 36.20625Q202.4875 37.753124 200.175 37.753124Q197.89375 37.753124 196.8 36.2375Q195.70625 34.721874 195.675 31.721874L195.675 29.315624Q195.675 26.175 196.75313 24.659374Q197.84688 23.128124 200.15938 23.128124Q202.45625 23.128124 203.53438 24.6125Q204.6125 26.08125 204.64375 29.14375L204.64375 31.4875ZM202.84688 29.01875Q202.84688 26.721874 202.19063 25.675Q201.55 24.6125 200.15938 24.6125Q198.76875 24.6125 198.12813 25.659374Q197.50313 26.70625 197.4875 28.878124L197.4875 31.76875Q197.4875 34.065624 198.14375 35.175Q198.81563 36.26875 200.175 36.26875Q201.51875 36.26875 202.15938 35.2375Q202.81563 34.20625 202.84688 31.971874L202.84688 29.01875ZM216.05 37.55L206.7375 37.55L206.7375 36.253124L211.65938 30.784374Q212.75313 29.534374 213.15938 28.76875Q213.58125 27.9875 213.58125 27.159374Q213.58125 26.05 212.90938 25.33125Q212.2375 24.6125 211.1125 24.6125Q209.75313 24.6125 209.00313 25.39375Q208.26875 26.159374 208.26875 27.51875L206.45625 27.51875Q206.45625 25.55 207.72188 24.346874Q208.9875 23.128124 211.1125 23.128124Q213.09688 23.128124 214.2375 24.175Q215.39375 25.221874 215.39375 26.940624Q215.39375 29.05 212.72188 31.940624L208.90938 36.08125L216.05 36.08125L216.05 37.55ZM226.64375 31.4875Q226.64375 34.659374 225.56563 36.20625Q224.4875 37.753124 222.175 37.753124Q219.89375 37.753124 218.8 36.2375Q217.70625 34.721874 217.675 31.721874L217.675 29.315624Q217.675 26.175 218.75313 24.659374Q219.84688 23.128124 222.15938 23.128124Q224.45625 23.128124 225.53438 24.6125Q226.6125 26.08125 226.64375 29.14375L226.64375 31.4875ZM224.84688 29.01875Q224.84688 26.721874 224.19063 25.675Q223.55 24.6125 222.15938 24.6125Q220.76875 24.6125 220.12813 25.659374Q219.50313 26.70625 219.4875 28.878124L219.4875 31.76875Q219.4875 34.065624 220.14375 35.175Q220.81563 36.26875 222.175 36.26875Q223.51875 36.26875 224.15938 35.2375Q224.81563 34.20625 224.84688 31.971874L224.84688 29.01875Z" fill-rule="nonzero"/></svg>