<svg version="1.1" viewBox="0.0 0.0 429.0 371.0" fill="none" stroke="none" stroke-linecap="square" stroke-miterlimit="10" width="429" height="371" xmlns:xlink="http://www.w3.org/1999/xlink" xmlns="http://www.w3.org/2000/svg"><path fill="#ffffff" d="M0 0L429.0 0L429.0 371.0L0 371.0L0 0Z" fill-rule="nonzero"/><path fill="#674ea7" d="M172.41556 49.916668C237.1436 49.916668 294.69864 91.10075 315.5882 152.3653C336.47775 213.62985 316.072 281.39648 264.82727 320.9401L218.62141 261.0617C244.24377 241.2899 254.44666 207.40659 244.00188 176.77432C233.55708 146.14204 204.77957 125.55 172.41556 125.55Z" fill-rule="nonzero"/><path fill="#d9d9d9" d="M81.21241 80.50363C107.47533 60.655552 139.49615 49.916668 172.41556 49.916668L172.41556 125.55C155.95586 125.55 139.94543 130.91945 126.81399 140.84348Z" fill-rule="nonzero"/><path fill="#999999" d="M264.82727 320.9401C221.8989 354.06628 164.52345 361.68103 114.44051 340.8991C64.35757 320.1172 29.22922 274.118 22.365614 220.33064C15.502009 166.54329 37.953197 113.19659 81.21241 80.50363L126.81399 140.84348C105.18438 157.18996 93.958786 183.86331 97.39059 210.75699C100.82239 237.65067 118.38656 260.65027 143.42804 271.04123C168.46951 281.4322 197.15723 277.6248 218.62141 261.0617Z" fill-rule="nonzero"/><path fill="#674ea7" d="M358.45 57.416668C358.45 60.730373 355.7637 63.416668 352.45 63.416668C349.1363 63.416668 346.45 60.730373 346.45 57.416668C346.45 54.10296 349.1363 51.416668 352.45 51.416668C355.7637 51.416668 358.45 54.10296 358.45 57.416668Z" fill-rule="nonzero"/><path fill="#757575" d="M367.4344 61.916668L367.4344 53.385418L369.85626 53.385418Q370.96564 53.385418 371.8094 53.885418Q372.66876 54.369793 373.1375 55.276043Q373.60626 56.182293 373.60626 57.369793L373.60626 57.901043Q373.60626 59.119793 373.1375 60.026043Q372.6844 60.932293 371.8094 61.416668Q370.95 61.901043 369.8094 61.916668L367.4344 61.916668ZM368.5594 54.307293L368.5594 60.994793L369.7469 60.994793Q371.04376 60.994793 371.7625 60.197918Q372.4969 59.385418 372.4969 57.885418L372.4969 57.385418Q372.4969 55.932293 371.8094 55.135418Q371.1375 54.322918 369.8719 54.307293L368.5594 54.307293ZM377.90314 62.041668Q376.60626 62.041668 375.79376 61.197918Q374.9969 60.338543 374.9969 58.916668L374.9969 58.729168Q374.9969 57.776043 375.35626 57.041668Q375.71564 56.291668 376.35626 55.885418Q377.0125 55.463543 377.7625 55.463543Q378.9969 55.463543 379.6844 56.276043Q380.3719 57.088543 380.3719 58.604168L380.3719 59.057293L376.075 59.057293Q376.10626 59.994793 376.6219 60.572918Q377.15314 61.151043 377.96564 61.151043Q378.52814 61.151043 378.91876 60.916668Q379.325 60.682293 379.6375 60.291668L380.29376 60.807293Q379.4969 62.041668 377.90314 62.041668ZM377.7625 56.354168Q377.10626 56.354168 376.65314 56.838543Q376.21564 57.307293 376.1219 58.166668L379.29376 58.166668L379.29376 58.088543Q379.2469 57.260418 378.84064 56.807293Q378.45 56.354168 377.7625 56.354168ZM384.96564 60.229168Q384.96564 59.791668 384.6219 59.557293Q384.29376 59.307293 383.46564 59.135418Q382.65314 58.963543 382.16876 58.713543Q381.6844 58.463543 381.45 58.135418Q381.23126 57.791668 381.23126 57.322918Q381.23126 56.541668 381.8875 56.010418Q382.54376 55.463543 383.575 55.463543Q384.65314 55.463543 385.3094 56.026043Q385.98126 56.572918 385.98126 57.432293L384.90314 57.432293Q384.90314 56.994793 384.5125 56.682293Q384.1375 56.354168 383.575 56.354168Q382.98126 56.354168 382.6375 56.619793Q382.3094 56.869793 382.3094 57.276043Q382.3094 57.666668 382.6219 57.869793Q382.9344 58.072918 383.7469 58.260418Q384.5594 58.432293 385.0594 58.682293Q385.5594 58.932293 385.79376 59.291668Q386.04376 59.651043 386.04376 60.151043Q386.04376 61.010418 385.35626 61.526043Q384.6844 62.041668 383.60626 62.041668Q382.84064 62.041668 382.2469 61.776043Q381.66876 61.494793 381.34064 61.010418Q381.0125 60.526043 381.0125 59.963543L382.09064 59.963543Q382.1219 60.510418 382.52814 60.838543Q382.9344 61.151043 383.60626 61.151043Q384.21564 61.151043 384.59064 60.901043Q384.96564 60.651043 384.96564 60.229168ZM389.04376 58.979168L388.35626 59.682293L388.35626 61.916668L387.27814 61.916668L387.27814 52.916668L388.35626 52.916668L388.35626 58.354168L388.9344 57.666668L390.91876 55.572918L392.23126 55.572918L389.7625 58.229168L392.52814 61.916668L391.2469 61.916668L389.04376 58.979168ZM394.7469 54.041668L394.7469 55.572918L395.91876 55.572918L395.91876 56.416668L394.7469 56.416668L394.7469 60.338543Q394.7469 60.729168 394.90314 60.916668Q395.0594 61.104168 395.4344 61.104168Q395.6219 61.104168 395.95 61.041668L395.95 61.916668Q395.52814 62.041668 395.1219 62.041668Q394.40314 62.041668 394.02814 61.604168Q393.65314 61.151043 393.65314 60.338543L393.65314 56.416668L392.4969 56.416668L392.4969 55.572918L393.65314 55.572918L393.65314 54.041668L394.7469 54.041668ZM396.98126 58.682293Q396.98126 57.760418 397.34064 57.010418Q397.71564 56.260418 398.3719 55.869793Q399.02814 55.463543 399.85626 55.463543Q401.15314 55.463543 401.95 56.354168Q402.7625 57.244793 402.7625 58.744793L402.7625 58.822918Q402.7625 59.744793 402.40314 60.479168Q402.04376 61.213543 401.3875 61.635418Q400.73126 62.041668 399.8719 62.041668Q398.59064 62.041668 397.77814 61.151043Q396.98126 60.244793 396.98126 58.760418L396.98126 58.682293ZM398.075 58.822918Q398.075 59.869793 398.5594 60.510418Q399.0594 61.151043 399.8719 61.151043Q400.7 61.151043 401.1844 60.510418Q401.66876 59.854168 401.66876 58.682293Q401.66876 57.651043 401.16876 57.010418Q400.6844 56.354168 399.85626 56.354168Q399.0594 56.354168 398.5594 56.994793Q398.075 57.619793 398.075 58.822918ZM409.6219 58.822918Q409.6219 60.260418 408.96564 61.151043Q408.3094 62.041668 407.16876 62.041668Q406.0125 62.041668 405.35626 61.307293L405.35626 64.35417L404.27814 64.35417L404.27814 55.572918L405.2625 55.572918L405.3094 56.276043Q405.98126 55.463543 407.15314 55.463543Q408.29376 55.463543 408.95 56.322918Q409.6219 57.182293 409.6219 58.713543L409.6219 58.822918ZM408.54376 58.697918Q408.54376 57.619793 408.075 57.010418Q407.6219 56.385418 406.825 56.385418Q405.84064 56.385418 405.35626 57.244793L405.35626 60.276043Q405.84064 61.151043 406.84064 61.151043Q407.6219 61.151043 408.075 60.541668Q408.54376 59.916668 408.54376 58.697918Z" fill-rule="nonzero"/><path fill="#999999" d="M358.45 82.416664C358.45 85.73038 355.7637 88.416664 352.45 88.416664C349.1363 88.416664 346.45 85.73038 346.45 82.416664C346.45 79.10296 349.1363 76.416664 352.45 76.416664C355.7637 76.416664 358.45 79.10296 358.45 82.416664Z" fill-rule="nonzero"/><path fill="#757575" d="M368.8875 78.385414L371.6844 85.33854L374.46564 78.385414L375.9344 78.385414L375.9344 86.916664L374.8094 86.916664L374.8094 83.58854L374.91876 80.010414L372.10626 86.916664L371.2469 86.916664L368.45 80.02604L368.5594 83.58854L368.5594 86.916664L367.4344 86.916664L367.4344 78.385414L368.8875 78.385414ZM376.98126 83.68229Q376.98126 82.760414 377.34064 82.010414Q377.71564 81.260414 378.3719 80.86979Q379.02814 80.46354 379.85626 80.46354Q381.15314 80.46354 381.95 81.354164Q382.7625 82.24479 382.7625 83.74479L382.7625 83.822914Q382.7625 84.74479 382.40314 85.479164Q382.04376 86.21354 381.3875 86.635414Q380.73126 87.041664 379.8719 87.041664Q378.59064 87.041664 377.77814 86.15104Q376.98126 85.24479 376.98126 83.760414L376.98126 83.68229ZM378.075 83.822914Q378.075 84.86979 378.5594 85.510414Q379.0594 86.15104 379.8719 86.15104Q380.7 86.15104 381.1844 85.510414Q381.66876 84.854164 381.66876 83.68229Q381.66876 82.65104 381.16876 82.010414Q380.6844 81.354164 379.85626 81.354164Q379.0594 81.354164 378.5594 81.99479Q378.075 82.61979 378.075 83.822914ZM389.6375 83.822914Q389.6375 85.27604 388.96564 86.166664Q388.3094 87.041664 387.1844 87.041664Q385.98126 87.041664 385.325 86.18229L385.2625 86.916664L384.27814 86.916664L384.27814 77.916664L385.35626 77.916664L385.35626 81.27604Q386.0125 80.46354 387.16876 80.46354Q388.325 80.46354 388.98126 81.33854Q389.6375 82.197914 389.6375 83.729164L389.6375 83.822914ZM388.5594 83.697914Q388.5594 82.58854 388.1219 81.99479Q387.7 81.385414 386.90314 81.385414Q385.825 81.385414 385.35626 82.36979L385.35626 85.11979Q385.85626 86.11979 386.90314 86.11979Q387.6844 86.11979 388.1219 85.510414Q388.5594 84.90104 388.5594 83.697914ZM392.45 86.916664L391.3719 86.916664L391.3719 80.572914L392.45 80.572914L392.45 86.916664ZM391.27814 78.90104Q391.27814 78.635414 391.4344 78.447914Q391.60626 78.260414 391.91876 78.260414Q392.23126 78.260414 392.3875 78.447914Q392.5594 78.635414 392.5594 78.90104Q392.5594 79.15104 392.3875 79.33854Q392.23126 79.510414 391.91876 79.510414Q391.60626 79.510414 391.4344 79.33854Q391.27814 79.15104 391.27814 78.90104ZM395.45 86.916664L394.3719 86.916664L394.3719 77.916664L395.45 77.916664L395.45 86.916664ZM399.90314 87.041664Q398.60626 87.041664 397.79376 86.197914Q396.9969 85.33854 396.9969 83.916664L396.9969 83.729164Q396.9969 82.77604 397.35626 82.041664Q397.71564 81.291664 398.35626 80.885414Q399.0125 80.46354 399.7625 80.46354Q400.9969 80.46354 401.6844 81.27604Q402.3719 82.08854 402.3719 83.604164L402.3719 84.05729L398.075 84.05729Q398.10626 84.99479 398.6219 85.572914Q399.15314 86.15104 399.96564 86.15104Q400.52814 86.15104 400.91876 85.916664Q401.325 85.68229 401.6375 85.291664L402.29376 85.80729Q401.4969 87.041664 399.90314 87.041664ZM399.7625 81.354164Q399.10626 81.354164 398.65314 81.83854Q398.21564 82.30729 398.1219 83.166664L401.29376 83.166664L401.29376 83.08854Q401.2469 82.260414 400.84064 81.80729Q400.45 81.354164 399.7625 81.354164Z" fill-rule="nonzero"/><path fill="#d9d9d9" d="M358.45 107.416664C358.45 110.73038 355.7637 113.416664 352.45 113.416664C349.1363 113.416664 346.45 110.73038 346.45 107.416664C346.45 104.10296 349.1363 101.416664 352.45 101.416664C355.7637 101.416664 358.45 104.10296 358.45 107.416664Z" fill-rule="nonzero"/><path fill="#757575" d="M373.34064 104.30729L370.59064 104.30729L370.59064 111.916664L369.48126 111.916664L369.48126 104.30729L366.73126 104.30729L366.73126 103.385414L373.34064 103.385414L373.34064 104.30729ZM378.1844 111.916664Q378.09064 111.729164 378.02814 111.24479Q377.27814 112.041664 376.23126 112.041664Q375.29376 112.041664 374.6844 111.510414Q374.09064 110.979164 374.09064 110.15104Q374.09064 109.166664 374.84064 108.61979Q375.59064 108.072914 376.96564 108.072914L378.0125 108.072914L378.0125 107.572914Q378.0125 107.010414 377.66876 106.68229Q377.34064 106.33854 376.66876 106.33854Q376.09064 106.33854 375.7 106.635414Q375.3094 106.916664 375.3094 107.33854L374.21564 107.33854Q374.21564 106.854164 374.54376 106.416664Q374.8875 105.979164 375.46564 105.729164Q376.04376 105.46354 376.73126 105.46354Q377.84064 105.46354 378.45 106.010414Q379.075 106.55729 379.10626 107.510414L379.10626 110.43229Q379.10626 111.30729 379.325 111.822914L379.325 111.916664L378.1844 111.916664ZM376.3875 111.08854Q376.90314 111.08854 377.35626 110.822914Q377.8094 110.55729 378.0125 110.135414L378.0125 108.83854L377.16876 108.83854Q375.16876 108.83854 375.16876 110.010414Q375.16876 110.510414 375.5125 110.80729Q375.85626 111.08854 376.3875 111.08854ZM386.6375 108.822914Q386.6375 110.27604 385.96564 111.166664Q385.3094 112.041664 384.1844 112.041664Q382.98126 112.041664 382.325 111.18229L382.2625 111.916664L381.27814 111.916664L381.27814 102.916664L382.35626 102.916664L382.35626 106.27604Q383.0125 105.46354 384.16876 105.46354Q385.325 105.46354 385.98126 106.33854Q386.6375 107.197914 386.6375 108.729164L386.6375 108.822914ZM385.5594 108.697914Q385.5594 107.58854 385.1219 106.99479Q384.7 106.385414 383.90314 106.385414Q382.825 106.385414 382.35626 107.36979L382.35626 110.11979Q382.85626 111.11979 383.90314 111.11979Q384.6844 111.11979 385.1219 110.510414Q385.5594 109.90104 385.5594 108.697914ZM389.45 111.916664L388.3719 111.916664L388.3719 102.916664L389.45 102.916664L389.45 111.916664ZM393.90314 112.041664Q392.60626 112.041664 391.79376 111.197914Q390.9969 110.33854 390.9969 108.916664L390.9969 108.729164Q390.9969 107.77604 391.35626 107.041664Q391.71564 106.291664 392.35626 105.885414Q393.0125 105.46354 393.7625 105.46354Q394.9969 105.46354 395.6844 106.27604Q396.3719 107.08854 396.3719 108.604164L396.3719 109.05729L392.075 109.05729Q392.10626 109.99479 392.6219 110.572914Q393.15314 111.15104 393.96564 111.15104Q394.52814 111.15104 394.91876 110.916664Q395.325 110.68229 395.6375 110.291664L396.29376 110.80729Q395.4969 112.041664 393.90314 112.041664ZM393.7625 106.354164Q393.10626 106.354164 392.65314 106.83854Q392.21564 107.30729 392.1219 108.166664L395.29376 108.166664L395.29376 108.08854Q395.2469 107.260414 394.84064 106.80729Q394.45 106.354164 393.7625 106.354164ZM398.7469 104.041664L398.7469 105.572914L399.91876 105.572914L399.91876 106.416664L398.7469 106.416664L398.7469 110.33854Q398.7469 110.729164 398.90314 110.916664Q399.0594 111.104164 399.4344 111.104164Q399.6219 111.104164 399.95 111.041664L399.95 111.916664Q399.52814 112.041664 399.1219 112.041664Q398.40314 112.041664 398.02814 111.604164Q397.65314 111.15104 397.65314 110.33854L397.65314 106.416664L396.4969 106.416664L396.4969 105.572914L397.65314 105.572914L397.65314 104.041664L398.7469 104.041664Z" fill-rule="nonzero"/><path fill="#000000" d="M28.83125 33.55L26.4875 33.55L26.4875 28.675L21.909374 28.675L21.909374 33.55L19.565624 33.55L19.565624 22.175L21.909374 22.175L21.909374 26.784374L26.4875 26.784374L26.4875 22.175L28.83125 22.175L28.83125 33.55ZM30.065624 29.2375Q30.065624 27.9875 30.55 27.003124Q31.034374 26.01875 31.940624 25.4875Q32.8625 24.940624 34.065624 24.940624Q35.76875 24.940624 36.846874 25.9875Q37.940624 27.034374 38.065624 28.83125L38.08125 29.409374Q38.08125 31.346874 36.9875 32.534374Q35.909374 33.70625 34.08125 33.70625Q32.253124 33.70625 31.159374 32.534374Q30.065624 31.3625 30.065624 29.346874L30.065624 29.2375ZM32.33125 29.409374Q32.33125 30.6125 32.784374 31.253124Q33.2375 31.878124 34.08125 31.878124Q34.89375 31.878124 35.346874 31.253124Q35.815624 30.628124 35.815624 29.2375Q35.815624 28.065624 35.346874 27.425Q34.89375 26.76875 34.065624 26.76875Q33.2375 26.76875 32.784374 27.409374Q32.33125 28.05 32.33125 29.409374ZM46.76875 30.471874L47.878124 25.096874L50.065624 25.096874L47.909374 33.55L46.01875 33.55L44.409374 28.221874L42.815624 33.55L40.925 33.55L38.76875 25.096874L40.95625 25.096874L42.05 30.471874L43.596874 25.096874L45.2375 25.096874L46.76875 30.471874ZM63.034374 29.39375Q63.034374 31.346874 62.14375 32.534374Q61.253124 33.70625 59.753124 33.70625Q58.471874 33.70625 57.675 32.815624L57.675 36.8L55.425 36.8L55.425 25.096874L57.51875 25.096874L57.596874 25.925Q58.409374 24.940624 59.7375 24.940624Q61.3 24.940624 62.159374 26.096874Q63.034374 27.253124 63.034374 29.284374L63.034374 29.39375ZM60.76875 29.2375Q60.76875 28.05 60.346874 27.409374Q59.940624 26.76875 59.14375 26.76875Q58.08125 26.76875 57.675 27.58125L57.675 31.05Q58.096874 31.878124 59.159374 31.878124Q60.76875 31.878124 60.76875 29.2375ZM68.31563 33.70625Q66.45625 33.70625 65.28438 32.565624Q64.1125 31.425 64.1125 29.51875L64.1125 29.3Q64.1125 28.034374 64.59688 27.034374Q65.09688 26.01875 66.00313 25.4875Q66.90938 24.940624 68.06563 24.940624Q69.8 24.940624 70.78438 26.034374Q71.78438 27.128124 71.78438 29.128124L71.78438 30.05L66.40938 30.05Q66.51875 30.878124 67.06563 31.378124Q67.6125 31.878124 68.45625 31.878124Q69.76875 31.878124 70.50313 30.940624L71.6125 32.175Q71.09688 32.89375 70.22188 33.3Q69.3625 33.70625 68.31563 33.70625ZM68.05 26.76875Q67.37813 26.76875 66.95625 27.221874Q66.55 27.675 66.425 28.51875L69.56563 28.51875L69.56563 28.33125Q69.55 27.58125 69.15938 27.175Q68.76875 26.76875 68.05 26.76875ZM73.06563 29.2375Q73.06563 27.9875 73.55 27.003124Q74.03438 26.01875 74.94063 25.4875Q75.8625 24.940624 77.06563 24.940624Q78.76875 24.940624 79.84688 25.9875Q80.94063 27.034374 81.06563 28.83125L81.08125 29.409374Q81.08125 31.346874 79.9875 32.534374Q78.90938 33.70625 77.08125 33.70625Q75.25313 33.70625 74.15938 32.534374Q73.06563 31.3625 73.06563 29.346874L73.06563 29.2375ZM75.33125 29.409374Q75.33125 30.6125 75.78438 31.253124Q76.2375 31.878124 77.08125 31.878124Q77.89375 31.878124 78.34688 31.253124Q78.81563 30.628124 78.81563 29.2375Q78.81563 28.065624 78.34688 27.425Q77.89375 26.76875 77.06563 26.76875Q76.2375 26.76875 75.78438 27.409374Q75.33125 28.05 75.33125 29.409374ZM90.03438 29.39375Q90.03438 31.346874 89.14375 32.534374Q88.25313 33.70625 86.75313 33.70625Q85.47188 33.70625 84.675 32.815624L84.675 36.8L82.425 36.8L82.425 25.096874L84.51875 25.096874L84.59688 25.925Q85.40938 24.940624 86.7375 24.940624Q88.3 24.940624 89.15938 26.096874Q90.03438 27.253124 90.03438 29.284374L90.03438 29.39375ZM87.76875 29.2375Q87.76875 28.05 87.34688 27.409374Q86.94063 26.76875 86.14375 26.76875Q85.08125 26.76875 84.675 27.58125L84.675 31.05Q85.09688 31.878124 86.15938 31.878124Q87.76875 31.878124 87.76875 29.2375ZM93.8 33.55L91.53438 33.55L91.53438 21.55L93.8 21.55L93.8 33.55ZM99.31563 33.70625Q97.45625 33.70625 96.28438 32.565624Q95.1125 31.425 95.1125 29.51875L95.1125 29.3Q95.1125 28.034374 95.59688 27.034374Q96.09688 26.01875 97.00313 25.4875Q97.90938 24.940624 99.06563 24.940624Q100.8 24.940624 101.78438 26.034374Q102.78438 27.128124 102.78438 29.128124L102.78438 30.05L97.40938 30.05Q97.51875 30.878124 98.06563 31.378124Q98.6125 31.878124 99.45625 31.878124Q100.76875 31.878124 101.50313 30.940624L102.6125 32.175Q102.09688 32.89375 101.22188 33.3Q100.3625 33.70625 99.31563 33.70625ZM99.05 26.76875Q98.37813 26.76875 97.95625 27.221874Q97.55 27.675 97.425 28.51875L100.56563 28.51875L100.56563 28.33125Q100.55 27.58125 100.15938 27.175Q99.76875 26.76875 99.05 26.76875ZM113.31563 33.55Q113.15938 33.2375 113.09688 32.784374Q112.26875 33.70625 110.95625 33.70625Q109.72188 33.70625 108.89375 32.9875Q108.08125 32.26875 108.08125 31.175Q108.08125 29.83125 109.08125 29.1125Q110.08125 28.39375 111.95625 28.378124L113.00313 28.378124L113.00313 27.89375Q113.00313 27.315624 112.69063 26.971874Q112.39375 26.6125 111.75313 26.6125Q111.175 26.6125 110.84688 26.89375Q110.53438 27.159374 110.53438 27.628124L108.26875 27.628124Q108.26875 26.89375 108.72188 26.26875Q109.175 25.64375 110.00313 25.3Q110.83125 24.940624 111.8625 24.940624Q113.425 24.940624 114.34688 25.721874Q115.26875 26.503124 115.26875 27.925L115.26875 31.596874Q115.26875 32.8 115.59688 33.409374L115.59688 33.55L113.31563 33.55ZM111.45625 31.971874Q111.95625 31.971874 112.37813 31.753124Q112.8 31.534374 113.00313 31.159374L113.00313 29.70625L112.15938 29.70625Q110.45625 29.70625 110.34688 30.878124L110.34688 31.003124Q110.34688 31.425 110.64375 31.70625Q110.94063 31.971874 111.45625 31.971874ZM120.94063 31.878124Q121.56563 31.878124 121.95625 31.534374Q122.34688 31.190624 122.3625 30.628124L124.47188 30.628124Q124.47188 31.4875 124.00313 32.20625Q123.55 32.909374 122.7375 33.315624Q121.94063 33.70625 120.97188 33.70625Q119.15938 33.70625 118.1125 32.55Q117.06563 31.39375 117.06563 29.3625L117.06563 29.221874Q117.06563 27.26875 118.09688 26.1125Q119.14375 24.940624 120.95625 24.940624Q122.55 24.940624 123.50313 25.846874Q124.45625 26.7375 124.47188 28.2375L122.3625 28.2375Q122.34688 27.58125 121.95625 27.175Q121.56563 26.76875 120.925 26.76875Q120.12813 26.76875 119.72188 27.346874Q119.33125 27.909374 119.33125 29.20625L119.33125 29.440624Q119.33125 30.7375 119.72188 31.315624Q120.12813 31.878124 120.94063 31.878124ZM128.94063 31.878124Q129.56563 31.878124 129.95625 31.534374Q130.34688 31.190624 130.3625 30.628124L132.47188 30.628124Q132.47188 31.4875 132.00313 32.20625Q131.55 32.909374 130.7375 33.315624Q129.94063 33.70625 128.97188 33.70625Q127.15938 33.70625 126.1125 32.55Q125.06563 31.39375 125.06563 29.3625L125.06563 29.221874Q125.06563 27.26875 126.09688 26.1125Q127.14375 24.940624 128.95625 24.940624Q130.55 24.940624 131.50313 25.846874Q132.45625 26.7375 132.47188 28.2375L130.3625 28.2375Q130.34688 27.58125 129.95625 27.175Q129.56563 26.76875 128.925 26.76875Q128.12813 26.76875 127.72188 27.346874Q127.33125 27.909374 127.33125 29.20625L127.33125 29.440624Q127.33125 30.7375 127.72188 31.315624Q128.12813 31.878124 128.94063 31.878124ZM137.31563 33.70625Q135.45625 33.70625 134.28438 32.565624Q133.1125 31.425 133.1125 29.51875L133.1125 29.3Q133.1125 28.034374 133.59688 27.034374Q134.09688 26.01875 135.00313 25.4875Q135.90938 24.940624 137.06563 24.940624Q138.8 24.940624 139.78438 26.034374Q140.78438 27.128124 140.78438 29.128124L140.78438 30.05L135.40938 30.05Q135.51875 30.878124 136.06563 31.378124Q136.6125 31.878124 137.45625 31.878124Q138.76875 31.878124 139.50313 30.940624L140.6125 32.175Q140.09688 32.89375 139.22188 33.3Q138.3625 33.70625 137.31563 33.70625ZM137.05 26.76875Q136.37813 26.76875 135.95625 27.221874Q135.55 27.675 135.425 28.51875L138.56563 28.51875L138.56563 28.33125Q138.55 27.58125 138.15938 27.175Q137.76875 26.76875 137.05 26.76875ZM147.00313 31.20625Q147.00313 30.8 146.58125 30.565624Q146.175 30.315624 145.26875 30.128124Q142.25313 29.503124 142.25313 27.565624Q142.25313 26.440624 143.19063 25.690624Q144.12813 24.940624 145.62813 24.940624Q147.2375 24.940624 148.20625 25.70625Q149.175 26.45625 149.175 27.659374L146.90938 27.659374Q146.90938 27.175 146.59688 26.8625Q146.28438 26.55 145.62813 26.55Q145.05 26.55 144.7375 26.815624Q144.425 27.065624 144.425 27.45625Q144.425 27.83125 144.78438 28.065624Q145.14375 28.3 145.9875 28.471874Q146.83125 28.628124 147.40938 28.846874Q149.19063 29.503124 149.19063 31.1125Q149.19063 32.26875 148.19063 32.9875Q147.20625 33.70625 145.64375 33.70625Q144.58125 33.70625 143.75313 33.33125Q142.925 32.940624 142.45625 32.284374Q141.9875 31.628124 141.9875 30.8625L144.12813 30.8625Q144.15938 31.45625 144.56563 31.784374Q144.9875 32.096874 145.69063 32.096874Q146.33125 32.096874 146.65938 31.8625Q147.00313 31.6125 147.00313 31.20625ZM155.00313 31.20625Q155.00313 30.8 154.58125 30.565624Q154.175 30.315624 153.26875 30.128124Q150.25313 29.503124 150.25313 27.565624Q150.25313 26.440624 151.19063 25.690624Q152.12813 24.940624 153.62813 24.940624Q155.2375 24.940624 156.20625 25.70625Q157.175 26.45625 157.175 27.659374L154.90938 27.659374Q154.90938 27.175 154.59688 26.8625Q154.28438 26.55 153.62813 26.55Q153.05 26.55 152.7375 26.815624Q152.425 27.065624 152.425 27.45625Q152.425 27.83125 152.78438 28.065624Q153.14375 28.3 153.9875 28.471874Q154.83125 28.628124 155.40938 28.846874Q157.19063 29.503124 157.19063 31.1125Q157.19063 32.26875 156.19063 32.9875Q155.20625 33.70625 153.64375 33.70625Q152.58125 33.70625 151.75313 33.33125Q150.925 32.940624 150.45625 32.284374Q149.9875 31.628124 149.9875 30.8625L152.12813 30.8625Q152.15938 31.45625 152.56563 31.784374Q152.9875 32.096874 153.69063 32.096874Q154.33125 32.096874 154.65938 31.8625Q155.00313 31.6125 155.00313 31.20625ZM162.31563 33.70625Q160.45625 33.70625 159.28438 32.565624Q158.1125 31.425 158.1125 29.51875L158.1125 29.3Q158.1125 28.034374 158.59688 27.034374Q159.09688 26.01875 160.00313 25.4875Q160.90938 24.940624 162.06563 24.940624Q163.8 24.940624 164.78438 26.034374Q165.78438 27.128124 165.78438 29.128124L165.78438 30.05L160.40938 30.05Q160.51875 30.878124 161.06563 31.378124Q161.6125 31.878124 162.45625 31.878124Q163.76875 31.878124 164.50313 30.940624L165.6125 32.175Q165.09688 32.89375 164.22188 33.3Q163.3625 33.70625 162.31563 33.70625ZM162.05 26.76875Q161.37813 26.76875 160.95625 27.221874Q160.55 27.675 160.425 28.51875L163.56563 28.51875L163.56563 28.33125Q163.55 27.58125 163.15938 27.175Q162.76875 26.76875 162.05 26.76875ZM167.06563 29.253124Q167.06563 27.284374 167.95625 26.1125Q168.84688 24.940624 170.37813 24.940624Q171.6125 24.940624 172.425 25.8625L172.425 21.55L174.69063 21.55L174.69063 33.55L172.64375 33.55L172.53438 32.64375Q171.69063 33.70625 170.3625 33.70625Q168.87813 33.70625 167.97188 32.534374Q167.06563 31.346874 167.06563 29.253124ZM169.33125 29.425Q169.33125 30.6125 169.7375 31.253124Q170.15938 31.878124 170.94063 31.878124Q171.9875 31.878124 172.425 30.9875L172.425 27.659374Q172.00313 26.76875 170.95625 26.76875Q169.33125 26.76875 169.33125 29.425ZM183.12813 23.01875L183.12813 25.096874L184.56563 25.096874L184.56563 26.753124L183.12813 26.753124L183.12813 30.971874Q183.12813 31.440624 183.3 31.64375Q183.4875 31.846874 183.9875 31.846874Q184.3625 31.846874 184.65938 31.784374L184.65938 33.503124Q183.9875 33.70625 183.28438 33.70625Q180.90938 33.70625 180.8625 31.3L180.8625 26.753124L179.62813 26.753124L179.62813 25.096874L180.8625 25.096874L180.8625 23.01875L183.12813 23.01875ZM187.62813 26.01875Q188.51875 24.940624 189.87813 24.940624Q192.62813 24.940624 192.675 28.128124L192.675 33.55L190.40938 33.55L190.40938 28.190624Q190.40938 27.471874 190.09688 27.128124Q189.78438 26.76875 189.06563 26.76875Q188.06563 26.76875 187.62813 27.534374L187.62813 33.55L185.3625 33.55L185.3625 21.55L187.62813 21.55L187.62813 26.01875ZM198.31563 33.70625Q196.45625 33.70625 195.28438 32.565624Q194.1125 31.425 194.1125 29.51875L194.1125 29.3Q194.1125 28.034374 194.59688 27.034374Q195.09688 26.01875 196.00313 25.4875Q196.90938 24.940624 198.06563 24.940624Q199.8 24.940624 200.78438 26.034374Q201.78438 27.128124 201.78438 29.128124L201.78438 30.05L196.40938 30.05Q196.51875 30.878124 197.06563 31.378124Q197.6125 31.878124 198.45625 31.878124Q199.76875 31.878124 200.50313 30.940624L201.6125 32.175Q201.09688 32.89375 200.22188 33.3Q199.3625 33.70625 198.31563 33.70625ZM198.05 26.76875Q197.37813 26.76875 196.95625 27.221874Q196.55 27.675 196.425 28.51875L199.56563 28.51875L199.56563 28.33125Q199.55 27.58125 199.15938 27.175Q198.76875 26.76875 198.05 26.76875ZM212.00313 31.20625Q212.00313 30.8 211.58125 30.565624Q211.175 30.315624 210.26875 30.128124Q207.25313 29.503124 207.25313 27.565624Q207.25313 26.440624 208.19063 25.690624Q209.12813 24.940624 210.62813 24.940624Q212.2375 24.940624 213.20625 25.70625Q214.175 26.45625 214.175 27.659374L211.90938 27.659374Q211.90938 27.175 211.59688 26.8625Q211.28438 26.55 210.62813 26.55Q210.05 26.55 209.7375 26.815624Q209.425 27.065624 209.425 27.45625Q209.425 27.83125 209.78438 28.065624Q210.14375 28.3 210.9875 28.471874Q211.83125 28.628124 212.40938 28.846874Q214.19063 29.503124 214.19063 31.1125Q214.19063 32.26875 213.19063 32.9875Q212.20625 33.70625 210.64375 33.70625Q209.58125 33.70625 208.75313 33.33125Q207.925 32.940624 207.45625 32.284374Q206.9875 31.628124 206.9875 30.8625L209.12813 30.8625Q209.15938 31.45625 209.56563 31.784374Q209.9875 32.096874 210.69063 32.096874Q211.33125 32.096874 211.65938 31.8625Q212.00313 31.6125 212.00313 31.20625ZM217.8 33.55L215.53438 33.55L215.53438 25.096874L217.8 25.096874L217.8 33.55ZM215.40938 22.909374Q215.40938 22.39375 215.7375 22.065624Q216.08125 21.7375 216.675 21.7375Q217.25313 21.7375 217.59688 22.065624Q217.94063 22.39375 217.94063 22.909374Q217.94063 23.425 217.58125 23.753124Q217.2375 24.08125 216.65938 24.08125Q216.09688 24.08125 215.75313 23.753124Q215.40938 23.425 215.40938 22.909374ZM222.12813 23.01875L222.12813 25.096874L223.56563 25.096874L223.56563 26.753124L222.12813 26.753124L222.12813 30.971874Q222.12813 31.440624 222.3 31.64375Q222.4875 31.846874 222.9875 31.846874Q223.3625 31.846874 223.65938 31.784374L223.65938 33.503124Q222.9875 33.70625 222.28438 33.70625Q219.90938 33.70625 219.8625 31.3L219.8625 26.753124L218.62813 26.753124L218.62813 25.096874L219.8625 25.096874L219.8625 23.01875L222.12813 23.01875ZM228.31563 33.70625Q226.45625 33.70625 225.28438 32.565624Q224.1125 31.425 224.1125 29.51875L224.1125 29.3Q224.1125 28.034374 224.59688 27.034374Q225.09688 26.01875 226.00313 25.4875Q226.90938 24.940624 228.06563 24.940624Q229.8 24.940624 230.78438 26.034374Q231.78438 27.128124 231.78438 29.128124L231.78438 30.05L226.40938 30.05Q226.51875 30.878124 227.06563 31.378124Q227.6125 31.878124 228.45625 31.878124Q229.76875 31.878124 230.50313 30.940624L231.6125 32.175Q231.09688 32.89375 230.22188 33.3Q229.3625 33.70625 228.31563 33.70625ZM228.05 26.76875Q227.37813 26.76875 226.95625 27.221874Q226.55 27.675 226.425 28.51875L229.56563 28.51875L229.56563 28.33125Q229.55 27.58125 229.15938 27.175Q228.76875 26.76875 228.05 26.76875Z" fill-rule="nonzero"/></svg>