<svg version="1.1" viewBox="0.0 0.0 755.0 371.0" fill="none" stroke="none" stroke-linecap="square" stroke-miterlimit="10" width="755" height="371" xmlns:xlink="http://www.w3.org/1999/xlink" xmlns="http://www.w3.org/2000/svg"><path fill="#ffffff" d="M0 0L755.0 0L755.0 371.0L0 371.0L0 0Z" fill-rule="nonzero"/><path stroke="#cccccc" stroke-width="1.0" stroke-linecap="butt" d="M94.5 57.5L94.5 331.5" fill-rule="nonzero"/><path stroke="#cccccc" stroke-width="1.0" stroke-linecap="butt" d="M209.5 57.5L209.5 331.5" fill-rule="nonzero"/><path stroke="#cccccc" stroke-width="1.0" stroke-linecap="butt" d="M326.5 57.5L326.5 331.5" fill-rule="nonzero"/><path stroke="#cccccc" stroke-width="1.0" stroke-linecap="butt" d="M443.5 57.5L443.5 331.5" fill-rule="nonzero"/><path stroke="#cccccc" stroke-width="1.0" stroke-linecap="butt" d="M562.5 57.5L562.5 331.5" fill-rule="nonzero"/><path stroke="#cccccc" stroke-width="1.0" stroke-linecap="butt" d="M678.5 57.5L678.5 331.5" fill-rule="nonzero"/><path stroke="#333333" stroke-width="1.0" stroke-linecap="butt" d="M94.5 331.5L736.5 331.5" fill-rule="nonzero"/><path stroke="#cccccc" stroke-width="1.0" stroke-linecap="butt" d="M94.5 285.5L736.5 285.5" fill-rule="nonzero"/><path stroke="#cccccc" stroke-width="1.0" stroke-linecap="butt" d="M94.5 240.5L736.5 240.5" fill-rule="nonzero"/><path stroke="#cccccc" stroke-width="1.0" stroke-linecap="butt" d="M94.5 194.5L736.5 194.5" fill-rule="nonzero"/><path stroke="#cccccc" stroke-width="1.0" stroke-linecap="butt" d="M94.5 148.5L736.5 148.5" fill-rule="nonzero"/><path stroke="#cccccc" stroke-width="1.0" stroke-linecap="butt" d="M94.5 103.5L736.5 103.5" fill-rule="nonzero"/><path stroke="#cccccc" stroke-width="1.0" stroke-linecap="butt" d="M94.5 57.5L736.5 57.5" fill-rule="nonzero"/><clipPath id="id_0"><path d="M94.55 57.416668L736.45 57.416668L736.45 331.45L94.55 331.45L94.55 57.416668Z" clip-rule="nonzero"/></clipPath><path fill="#674ea7" fill-opacity="0.3019608" clip-path="url(#id_0)" d="M94.55 109.62002L153.9497 114.23291L209.51717 151.18173L268.91687 142.32133L326.40045 140.12906L385.80014 120.96957L443.28372 115.39755L502.68344 116.12831L562.0831 132.27344L619.5667 130.35521L678.96643 162.30292L736.45 176.82669L736.45 331.45L678.96643 331.45L619.5667 331.45L562.0831 331.45L502.68344 331.45L443.28372 331.45L385.80014 331.45L326.40045 331.45L268.91687 331.45L209.51717 331.45L153.9497 331.45L94.55 331.45Z" fill-rule="nonzero"/><path stroke="#674ea7" stroke-width="2.0" stroke-linecap="butt" clip-path="url(#id_0)" d="M94.55 109.62002L153.9497 114.23291L209.51717 151.18173L268.91687 142.32133L326.40045 140.12906L385.80014 120.96957L443.28372 115.39755L502.68344 116.12831L562.0831 132.27344L619.5667 130.35521L678.96643 162.30292L736.45 176.82669" fill-rule="nonzero"/><path fill="#000000" fill-opacity="0.0" clip-path="url(#id_0)" d="M97.55 109.62002C97.55 111.27687 96.206856 112.62002 94.55 112.62002C92.89314 112.62002 91.55 111.27687 91.55 109.62002C91.55 107.963165 92.89314 106.62002 94.55 106.62002C96.206856 106.62002 97.55 107.963165 97.55 109.62002Z" fill-rule="nonzero"/><path fill="#000000" fill-opacity="0.0" clip-path="url(#id_0)" d="M156.9497 114.23291C156.9497 115.88976 155.60655 117.23291 153.9497 117.23291C152.29285 117.23291 150.9497 115.88976 150.9497 114.23291C150.9497 112.57606 152.29285 111.23291 153.9497 111.23291C155.60655 111.23291 156.9497 112.57606 156.9497 114.23291Z" fill-rule="nonzero"/><path fill="#000000" fill-opacity="0.0" clip-path="url(#id_0)" d="M212.51717 151.18173C212.51717 152.8386 211.17401 154.18173 209.51717 154.18173C207.8603 154.18173 206.51717 152.8386 206.51717 151.18173C206.51717 149.52489 207.8603 148.18173 209.51717 148.18173C211.17401 148.18173 212.51717 149.52489 212.51717 151.18173Z" fill-rule="nonzero"/><path fill="#000000" fill-opacity="0.0" clip-path="url(#id_0)" d="M271.91687 142.32133C271.91687 143.97818 270.57373 145.32133 268.91687 145.32133C267.26 145.32133 265.91687 143.97818 265.91687 142.32133C265.91687 140.66447 267.26 139.32133 268.91687 139.32133C270.57373 139.32133 271.91687 140.66447 271.91687 142.32133Z" fill-rule="nonzero"/><path fill="#000000" fill-opacity="0.0" clip-path="url(#id_0)" d="M329.40045 140.12906C329.40045 141.78592 328.0573 143.12906 326.40045 143.12906C324.7436 143.12906 323.40045 141.78592 323.40045 140.12906C323.40045 138.47221 324.7436 137.12906 326.40045 137.12906C328.0573 137.12906 329.40045 138.47221 329.40045 140.12906Z" fill-rule="nonzero"/><path fill="#000000" fill-opacity="0.0" clip-path="url(#id_0)" d="M388.80014 120.96957C388.80014 122.62642 387.457 123.96957 385.80014 123.96957C384.14328 123.96957 382.80014 122.62642 382.80014 120.96957C382.80014 119.312706 384.14328 117.96957 385.80014 117.96957C387.457 117.96957 388.80014 119.312706 388.80014 120.96957Z" fill-rule="nonzero"/><path fill="#000000" fill-opacity="0.0" clip-path="url(#id_0)" d="M446.28372 115.39755C446.28372 117.054405 444.94058 118.39755 443.28372 118.39755C441.6269 118.39755 440.28372 117.054405 440.28372 115.39755C440.28372 113.7407 441.6269 112.39755 443.28372 112.39755C444.94058 112.39755 446.28372 113.7407 446.28372 115.39755Z" fill-rule="nonzero"/><path fill="#000000" fill-opacity="0.0" clip-path="url(#id_0)" d="M505.68344 116.12831C505.68344 117.785164 504.3403 119.12831 502.68344 119.12831C501.02658 119.12831 499.68344 117.785164 499.68344 116.12831C499.68344 114.47145 501.02658 113.12831 502.68344 113.12831C504.3403 113.12831 505.68344 114.47145 505.68344 116.12831Z" fill-rule="nonzero"/><path fill="#000000" fill-opacity="0.0" clip-path="url(#id_0)" d="M565.0831 132.27344C565.0831 133.9303 563.74 135.27344 562.0831 135.27344C560.4263 135.27344 559.0831 133.9303 559.0831 132.27344C559.0831 130.61658 560.4263 129.27344 562.0831 129.27344C563.74 129.27344 565.0831 130.61658 565.0831 132.27344Z" fill-rule="nonzero"/><path fill="#000000" fill-opacity="0.0" clip-path="url(#id_0)" d="M622.5667 130.35521C622.5667 132.01205 621.2236 133.35521 619.5667 133.35521C617.90985 133.35521 616.5667 132.01205 616.5667 130.35521C616.5667 128.69835 617.90985 127.35521 619.5667 127.35521C621.2236 127.35521 622.5667 128.69835 622.5667 130.35521Z" fill-rule="nonzero"/><path fill="#000000" fill-opacity="0.0" clip-path="url(#id_0)" d="M681.96643 162.30292C681.96643 163.95978 680.6233 165.30292 678.96643 165.30292C677.3096 165.30292 675.96643 163.95978 675.96643 162.30292C675.96643 160.64607 677.3096 159.30292 678.96643 159.30292C680.6233 159.30292 681.96643 160.64607 681.96643 162.30292Z" fill-rule="nonzero"/><path fill="#000000" fill-opacity="0.0" clip-path="url(#id_0)" d="M739.45 176.82669C739.45 178.48355 738.1069 179.82669 736.45 179.82669C734.79315 179.82669 733.45 178.48355 733.45 176.82669C733.45 175.16983 734.79315 173.82669 736.45 173.82669C738.1069 173.82669 739.45 175.16983 739.45 176.82669Z" fill-rule="nonzero"/><path fill="#424242" d="M22.018763 209.18333L27.815638 209.18333Q29.018763 209.19896 29.800013 209.94896Q30.565638 210.69896 30.659388 211.98021L30.675013 212.29271Q30.675013 213.68333 29.925013 214.52708Q29.159388 215.35521 27.831263 215.35521L22.018763 215.35521L22.018763 214.24583L27.800013 214.24583Q28.721888 214.24583 29.237513 213.74583Q29.753138 213.23021 29.753138 212.29271Q29.753138 211.32396 29.237513 210.82396Q28.721888 210.32396 27.800013 210.32396L22.018763 210.32396L22.018763 209.18333ZM28.862513 203.66771Q28.425013 203.66771 28.190638 204.01146Q27.940638 204.33958 27.768763 205.16771Q27.596888 205.98021 27.346888 206.46458Q27.096888 206.94896 26.768763 207.18333Q26.425013 207.40208 25.956263 207.40208Q25.175013 207.40208 24.643763 206.74583Q24.096888 206.08958 24.096888 205.05833Q24.096888 203.98021 24.659388 203.32396Q25.206263 202.65208 26.065638 202.65208L26.065638 203.73021Q25.628138 203.73021 25.315638 204.12083Q24.987513 204.49583 24.987513 205.05833Q24.987513 205.65208 25.253138 205.99583Q25.503138 206.32396 25.909388 206.32396Q26.300013 206.32396 26.503138 206.01146Q26.706263 205.69896 26.893763 204.88646Q27.065638 204.07396 27.315638 203.57396Q27.565638 203.07396 27.925013 202.83958Q28.284388 202.58958 28.784388 202.58958Q29.643763 202.58958 30.159388 203.27708Q30.675013 203.94896 30.675013 205.02708Q30.675013 205.79271 30.409388 206.38646Q30.128138 206.96458 29.643763 207.29271Q29.159388 207.62083 28.596888 207.62083L28.596888 206.54271Q29.143763 206.51146 29.471888 206.10521Q29.784388 205.69896 29.784388 205.02708Q29.784388 204.41771 29.534388 204.04271Q29.284388 203.66771 28.862513 203.66771ZM30.675013 198.73021Q30.675013 200.02708 29.831263 200.83958Q28.971888 201.63646 27.550013 201.63646L27.362513 201.63646Q26.409388 201.63646 25.675013 201.27708Q24.925013 200.91771 24.518763 200.27708Q24.096888 199.62083 24.096888 198.87083Q24.096888 197.63646 24.909388 196.94896Q25.721888 196.26146 27.237513 196.26146L27.690638 196.26146L27.690638 200.55833Q28.628138 200.52708 29.206263 200.01146Q29.784388 199.48021 29.784388 198.66771Q29.784388 198.10521 29.550013 197.71458Q29.315638 197.30833 28.925013 196.99583L29.440638 196.33958Q30.675013 197.13646 30.675013 198.73021ZM24.987513 198.87083Q24.987513 199.52708 25.471888 199.98021Q25.940638 200.41771 26.800013 200.51146L26.800013 197.33958L26.721888 197.33958Q25.893763 197.38646 25.440638 197.79271Q24.987513 198.18333 24.987513 198.87083ZM25.175013 192.29271Q25.143763 192.54271 25.143763 192.82396Q25.143763 193.90208 26.050013 194.27708L30.550013 194.27708L30.550013 195.35521L24.206263 195.35521L24.206263 194.30833L24.940638 194.29271Q24.096888 193.76146 24.096888 192.77708Q24.096888 192.46458 24.175013 192.29271L25.175013 192.29271ZM28.862513 187.66771Q28.425013 187.66771 28.190638 188.01146Q27.940638 188.33958 27.768763 189.16771Q27.596888 189.98021 27.346888 190.46458Q27.096888 190.94896 26.768763 191.18333Q26.425013 191.40208 25.956263 191.40208Q25.175013 191.40208 24.643763 190.74583Q24.096888 190.08958 24.096888 189.05833Q24.096888 187.98021 24.659388 187.32396Q25.206263 186.65208 26.065638 186.65208L26.065638 187.73021Q25.628138 187.73021 25.315638 188.12083Q24.987513 188.49583 24.987513 189.05833Q24.987513 189.65208 25.253138 189.99583Q25.503138 190.32396 25.909388 190.32396Q26.300013 190.32396 26.503138 190.01146Q26.706263 189.69896 26.893763 188.88646Q27.065638 188.07396 27.315638 187.57396Q27.565638 187.07396 27.925013 186.83958Q28.284388 186.58958 28.784388 186.58958Q29.643763 186.58958 30.159388 187.27708Q30.675013 187.94896 30.675013 189.02708Q30.675013 189.79271 30.409388 190.38646Q30.128138 190.96458 29.643763 191.29271Q29.159388 191.62083 28.596888 191.62083L28.596888 190.54271Q29.143763 190.51146 29.471888 190.10521Q29.784388 189.69896 29.784388 189.02708Q29.784388 188.41771 29.534388 188.04271Q29.284388 187.66771 28.862513 187.66771Z" fill-rule="nonzero"/><path fill="#757575" d="M87.6125 332.3094Q87.6125 334.21564 86.95625 335.15314Q86.31563 336.075 84.925 336.075Q83.56563 336.075 82.90938 335.16876Q82.25313 334.2625 82.22188 332.45L82.22188 331.0125Q82.22188 329.1219 82.8625 328.21564Q83.51875 327.29376 84.90938 327.29376Q86.28438 327.29376 86.94063 328.1844Q87.59688 329.0594 87.6125 330.90314L87.6125 332.3094ZM86.51875 330.825Q86.51875 329.45 86.12813 328.825Q85.75313 328.1844 84.90938 328.1844Q84.08125 328.1844 83.69063 328.825Q83.31563 329.45 83.31563 330.7469L83.31563 332.48126Q83.31563 333.85626 83.70625 334.52814Q84.1125 335.1844 84.925 335.1844Q85.72188 335.1844 86.1125 334.5594Q86.50313 333.9344 86.51875 332.60626L86.51875 330.825Z" fill-rule="nonzero"/><path fill="#757575" d="M64.84688 290.27777L59.253124 290.27777L59.253124 289.49652L62.20625 286.21527Q62.8625 285.46527 63.1125 285.01215Q63.3625 284.5434 63.3625 284.0434Q63.3625 283.37152 62.95625 282.94965Q62.565624 282.51215 61.878124 282.51215Q61.08125 282.51215 60.628124 282.9809Q60.175 283.43402 60.175 284.26215L59.096874 284.26215Q59.096874 283.07465 59.846874 282.3559Q60.6125 281.62152 61.878124 281.62152Q63.08125 281.62152 63.76875 282.24652Q64.45625 282.87152 64.45625 283.9184Q64.45625 285.1684 62.846874 286.9184L60.565624 289.38715L64.84688 289.38715L64.84688 290.27777ZM66.33125 291.9809L65.72188 291.55902Q66.26875 290.7934 66.3 289.96527L66.3 288.99652L67.3625 288.99652L67.3625 289.84027Q67.3625 290.43402 67.06563 291.02777Q66.76875 291.62152 66.33125 291.9809ZM73.6125 286.63715Q73.6125 288.5434 72.95625 289.4809Q72.31563 290.40277 70.925 290.40277Q69.56563 290.40277 68.90938 289.49652Q68.25313 288.59027 68.22188 286.77777L68.22188 285.34027Q68.22188 283.44965 68.8625 282.5434Q69.51875 281.62152 70.90938 281.62152Q72.28438 281.62152 72.94063 282.51215Q73.59688 283.38715 73.6125 285.2309L73.6125 286.63715ZM72.51875 285.15277Q72.51875 283.77777 72.12813 283.15277Q71.75313 282.51215 70.90938 282.51215Q70.08125 282.51215 69.69063 283.15277Q69.31563 283.77777 69.31563 285.07465L69.31563 286.80902Q69.31563 288.18402 69.70625 288.8559Q70.1125 289.51215 70.925 289.51215Q71.72188 289.51215 72.1125 288.88715Q72.50313 288.26215 72.51875 286.93402L72.51875 285.15277ZM80.6125 286.63715Q80.6125 288.5434 79.95625 289.4809Q79.31563 290.40277 77.925 290.40277Q76.56563 290.40277 75.90938 289.49652Q75.25313 288.59027 75.22188 286.77777L75.22188 285.34027Q75.22188 283.44965 75.8625 282.5434Q76.51875 281.62152 77.90938 281.62152Q79.28438 281.62152 79.94063 282.51215Q80.59688 283.38715 80.6125 285.2309L80.6125 286.63715ZM79.51875 285.15277Q79.51875 283.77777 79.12813 283.15277Q78.75313 282.51215 77.90938 282.51215Q77.08125 282.51215 76.69063 283.15277Q76.31563 283.77777 76.31563 285.07465L76.31563 286.80902Q76.31563 288.18402 76.70625 288.8559Q77.1125 289.51215 77.925 289.51215Q78.72188 289.51215 79.1125 288.88715Q79.50313 288.26215 79.51875 286.93402L79.51875 285.15277ZM87.6125 286.63715Q87.6125 288.5434 86.95625 289.4809Q86.31563 290.40277 84.925 290.40277Q83.56563 290.40277 82.90938 289.49652Q82.25313 288.59027 82.22188 286.77777L82.22188 285.34027Q82.22188 283.44965 82.8625 282.5434Q83.51875 281.62152 84.90938 281.62152Q86.28438 281.62152 86.94063 282.51215Q87.59688 283.38715 87.6125 285.2309L87.6125 286.63715ZM86.51875 285.15277Q86.51875 283.77777 86.12813 283.15277Q85.75313 282.51215 84.90938 282.51215Q84.08125 282.51215 83.69063 283.15277Q83.31563 283.77777 83.31563 285.07465L83.31563 286.80902Q83.31563 288.18402 83.70625 288.8559Q84.1125 289.51215 84.925 289.51215Q85.72188 289.51215 86.1125 288.88715Q86.50313 288.26215 86.51875 286.93402L86.51875 285.15277Z" fill-rule="nonzero"/><path fill="#757575" d="M63.83125 241.74619L65.01875 241.74619L65.01875 242.62119L63.83125 242.62119L63.83125 244.60556L62.753124 244.60556L62.753124 242.62119L58.8625 242.62119L58.8625 241.98056L62.675 236.07431L63.83125 236.07431L63.83125 241.74619ZM60.096874 241.74619L62.753124 241.74619L62.753124 237.55869L62.6125 237.79306L60.096874 241.74619ZM66.33125 246.30869L65.72188 245.88681Q66.26875 245.12119 66.3 244.29306L66.3 243.32431L67.3625 243.32431L67.3625 244.16806Q67.3625 244.76181 67.06563 245.35556Q66.76875 245.94931 66.33125 246.30869ZM73.6125 240.96494Q73.6125 242.87119 72.95625 243.80869Q72.31563 244.73056 70.925 244.73056Q69.56563 244.73056 68.90938 243.82431Q68.25313 242.91806 68.22188 241.10556L68.22188 239.66806Q68.22188 237.77744 68.8625 236.87119Q69.51875 235.94931 70.90938 235.94931Q72.28438 235.94931 72.94063 236.83994Q73.59688 237.71494 73.6125 239.55869L73.6125 240.96494ZM72.51875 239.48056Q72.51875 238.10556 72.12813 237.48056Q71.75313 236.83994 70.90938 236.83994Q70.08125 236.83994 69.69063 237.48056Q69.31563 238.10556 69.31563 239.40244L69.31563 241.13681Q69.31563 242.51181 69.70625 243.18369Q70.1125 243.83994 70.925 243.83994Q71.72188 243.83994 72.1125 243.21494Q72.50313 242.58994 72.51875 241.26181L72.51875 239.48056ZM80.6125 240.96494Q80.6125 242.87119 79.95625 243.80869Q79.31563 244.73056 77.925 244.73056Q76.56563 244.73056 75.90938 243.82431Q75.25313 242.91806 75.22188 241.10556L75.22188 239.66806Q75.22188 237.77744 75.8625 236.87119Q76.51875 235.94931 77.90938 235.94931Q79.28438 235.94931 79.94063 236.83994Q80.59688 237.71494 80.6125 239.55869L80.6125 240.96494ZM79.51875 239.48056Q79.51875 238.10556 79.12813 237.48056Q78.75313 236.83994 77.90938 236.83994Q77.08125 236.83994 76.69063 237.48056Q76.31563 238.10556 76.31563 239.40244L76.31563 241.13681Q76.31563 242.51181 76.70625 243.18369Q77.1125 243.83994 77.925 243.83994Q78.72188 243.83994 79.1125 243.21494Q79.50313 242.58994 79.51875 241.26181L79.51875 239.48056ZM87.6125 240.96494Q87.6125 242.87119 86.95625 243.80869Q86.31563 244.73056 84.925 244.73056Q83.56563 244.73056 82.90938 243.82431Q82.25313 242.91806 82.22188 241.10556L82.22188 239.66806Q82.22188 237.77744 82.8625 236.87119Q83.51875 235.94931 84.90938 235.94931Q86.28438 235.94931 86.94063 236.83994Q87.59688 237.71494 87.6125 239.55869L87.6125 240.96494ZM86.51875 239.48056Q86.51875 238.10556 86.12813 237.48056Q85.75313 236.83994 84.90938 236.83994Q84.08125 236.83994 83.69063 237.48056Q83.31563 238.10556 83.31563 239.40244L83.31563 241.13681Q83.31563 242.51181 83.70625 243.18369Q84.1125 243.83994 84.925 243.83994Q85.72188 243.83994 86.1125 243.21494Q86.50313 242.58994 86.51875 241.26181L86.51875 239.48056Z" fill-rule="nonzero"/><path fill="#757575" d="M63.51875 190.40208L63.51875 191.30833L63.315624 191.30833Q62.05 191.33958 61.3 192.07396Q60.55 192.79271 60.425 194.10521Q61.1125 193.33958 62.26875 193.33958Q63.378124 193.33958 64.05 194.12083Q64.72188 194.90208 64.72188 196.15208Q64.72188 197.46458 64.00313 198.26146Q63.284374 199.05833 62.065624 199.05833Q60.846874 199.05833 60.08125 198.12083Q59.33125 197.16771 59.33125 195.68333L59.33125 195.27708Q59.33125 192.91771 60.33125 191.66771Q61.33125 190.41771 63.315624 190.40208L63.51875 190.40208ZM62.096874 194.24583Q61.534374 194.24583 61.065624 194.57396Q60.596874 194.90208 60.409374 195.41771L60.409374 195.80833Q60.409374 196.87083 60.878124 197.51146Q61.3625 198.15208 62.065624 198.15208Q62.8 198.15208 63.221874 197.62083Q63.64375 197.07396 63.64375 196.19896Q63.64375 195.32396 63.221874 194.79271Q62.8 194.24583 62.096874 194.24583ZM66.33125 200.63646L65.72188 200.21458Q66.26875 199.44896 66.3 198.62083L66.3 197.65208L67.3625 197.65208L67.3625 198.49583Q67.3625 199.08958 67.06563 199.68333Q66.76875 200.27708 66.33125 200.63646ZM73.6125 195.29271Q73.6125 197.19896 72.95625 198.13646Q72.31563 199.05833 70.925 199.05833Q69.56563 199.05833 68.90938 198.15208Q68.25313 197.24583 68.22188 195.43333L68.22188 193.99583Q68.22188 192.10521 68.8625 191.19896Q69.51875 190.27708 70.90938 190.27708Q72.28438 190.27708 72.94063 191.16771Q73.59688 192.04271 73.6125 193.88646L73.6125 195.29271ZM72.51875 193.80833Q72.51875 192.43333 72.12813 191.80833Q71.75313 191.16771 70.90938 191.16771Q70.08125 191.16771 69.69063 191.80833Q69.31563 192.43333 69.31563 193.73021L69.31563 195.46458Q69.31563 196.83958 69.70625 197.51146Q70.1125 198.16771 70.925 198.16771Q71.72188 198.16771 72.1125 197.54271Q72.50313 196.91771 72.51875 195.58958L72.51875 193.80833ZM80.6125 195.29271Q80.6125 197.19896 79.95625 198.13646Q79.31563 199.05833 77.925 199.05833Q76.56563 199.05833 75.90938 198.15208Q75.25313 197.24583 75.22188 195.43333L75.22188 193.99583Q75.22188 192.10521 75.8625 191.19896Q76.51875 190.27708 77.90938 190.27708Q79.28438 190.27708 79.94063 191.16771Q80.59688 192.04271 80.6125 193.88646L80.6125 195.29271ZM79.51875 193.80833Q79.51875 192.43333 79.12813 191.80833Q78.75313 191.16771 77.90938 191.16771Q77.08125 191.16771 76.69063 191.80833Q76.31563 192.43333 76.31563 193.73021L76.31563 195.46458Q76.31563 196.83958 76.70625 197.51146Q77.1125 198.16771 77.925 198.16771Q78.72188 198.16771 79.1125 197.54271Q79.50313 196.91771 79.51875 195.58958L79.51875 193.80833ZM87.6125 195.29271Q87.6125 197.19896 86.95625 198.13646Q86.31563 199.05833 84.925 199.05833Q83.56563 199.05833 82.90938 198.15208Q82.25313 197.24583 82.22188 195.43333L82.22188 193.99583Q82.22188 192.10521 82.8625 191.19896Q83.51875 190.27708 84.90938 190.27708Q86.28438 190.27708 86.94063 191.16771Q87.59688 192.04271 87.6125 193.88646L87.6125 195.29271ZM86.51875 193.80833Q86.51875 192.43333 86.12813 191.80833Q85.75313 191.16771 84.90938 191.16771Q84.08125 191.16771 83.69063 191.80833Q83.31563 192.43333 83.31563 193.73021L83.31563 195.46458Q83.31563 196.83958 83.70625 197.51146Q84.1125 198.16771 84.925 198.16771Q85.72188 198.16771 86.1125 197.54271Q86.50313 196.91771 86.51875 195.58958L86.51875 193.80833Z" fill-rule="nonzero"/><path fill="#757575" d="M64.44063 146.94861Q64.44063 147.58923 64.09688 148.08923Q63.753124 148.58923 63.190624 148.87048Q63.846874 149.15173 64.2375 149.71423Q64.62813 150.26111 64.62813 150.96423Q64.62813 152.05798 63.878124 152.72986Q63.14375 153.38611 61.925 153.38611Q60.690624 153.38611 59.940624 152.72986Q59.20625 152.05798 59.20625 150.96423Q59.20625 150.26111 59.58125 149.71423Q59.95625 149.15173 60.628124 148.87048Q60.065624 148.58923 59.7375 148.08923Q59.409374 147.58923 59.409374 146.94861Q59.409374 145.87048 60.096874 145.24548Q60.784374 144.60486 61.925 144.60486Q63.05 144.60486 63.7375 145.24548Q64.44063 145.87048 64.44063 146.94861ZM63.55 150.93298Q63.55 150.21423 63.096874 149.77673Q62.64375 149.32361 61.909374 149.32361Q61.175 149.32361 60.721874 149.77673Q60.284374 150.21423 60.284374 150.94861Q60.284374 151.66736 60.721874 152.08923Q61.159374 152.49548 61.925 152.49548Q62.675 152.49548 63.1125 152.07361Q63.55 151.65173 63.55 150.93298ZM61.925 145.49548Q61.284374 145.49548 60.878124 145.90173Q60.4875 146.29236 60.4875 146.97986Q60.4875 147.62048 60.878124 148.02673Q61.26875 148.43298 61.909374 148.43298Q62.565624 148.43298 62.95625 148.02673Q63.346874 147.62048 63.346874 146.97986Q63.346874 146.32361 62.940624 145.91736Q62.534374 145.49548 61.925 145.49548ZM66.33125 154.96423L65.72188 154.54236Q66.26875 153.77673 66.3 152.94861L66.3 151.97986L67.3625 151.97986L67.3625 152.82361Q67.3625 153.41736 67.06563 154.01111Q66.76875 154.60486 66.33125 154.96423ZM73.6125 149.62048Q73.6125 151.52673 72.95625 152.46423Q72.31563 153.38611 70.925 153.38611Q69.56563 153.38611 68.90938 152.47986Q68.25313 151.57361 68.22188 149.76111L68.22188 148.32361Q68.22188 146.43298 68.8625 145.52673Q69.51875 144.60486 70.90938 144.60486Q72.28438 144.60486 72.94063 145.49548Q73.59688 146.37048 73.6125 148.21423L73.6125 149.62048ZM72.51875 148.13611Q72.51875 146.76111 72.12813 146.13611Q71.75313 145.49548 70.90938 145.49548Q70.08125 145.49548 69.69063 146.13611Q69.31563 146.76111 69.31563 148.05798L69.31563 149.79236Q69.31563 151.16736 69.70625 151.83923Q70.1125 152.49548 70.925 152.49548Q71.72188 152.49548 72.1125 151.87048Q72.50313 151.24548 72.51875 149.91736L72.51875 148.13611ZM80.6125 149.62048Q80.6125 151.52673 79.95625 152.46423Q79.31563 153.38611 77.925 153.38611Q76.56563 153.38611 75.90938 152.47986Q75.25313 151.57361 75.22188 149.76111L75.22188 148.32361Q75.22188 146.43298 75.8625 145.52673Q76.51875 144.60486 77.90938 144.60486Q79.28438 144.60486 79.94063 145.49548Q80.59688 146.37048 80.6125 148.21423L80.6125 149.62048ZM79.51875 148.13611Q79.51875 146.76111 79.12813 146.13611Q78.75313 145.49548 77.90938 145.49548Q77.08125 145.49548 76.69063 146.13611Q76.31563 146.76111 76.31563 148.05798L76.31563 149.79236Q76.31563 151.16736 76.70625 151.83923Q77.1125 152.49548 77.925 152.49548Q78.72188 152.49548 79.1125 151.87048Q79.50313 151.24548 79.51875 149.91736L79.51875 148.13611ZM87.6125 149.62048Q87.6125 151.52673 86.95625 152.46423Q86.31563 153.38611 84.925 153.38611Q83.56563 153.38611 82.90938 152.47986Q82.25313 151.57361 82.22188 149.76111L82.22188 148.32361Q82.22188 146.43298 82.8625 145.52673Q83.51875 144.60486 84.90938 144.60486Q86.28438 144.60486 86.94063 145.49548Q87.59688 146.37048 87.6125 148.21423L87.6125 149.62048ZM86.51875 148.13611Q86.51875 146.76111 86.12813 146.13611Q85.75313 145.49548 84.90938 145.49548Q84.08125 145.49548 83.69063 146.13611Q83.31563 146.76111 83.31563 148.05798L83.31563 149.79236Q83.31563 151.16736 83.70625 151.83923Q84.1125 152.49548 84.925 152.49548Q85.72188 152.49548 86.1125 151.87048Q86.50313 151.24548 86.51875 149.91736L86.51875 148.13611Z" fill-rule="nonzero"/><path fill="#757575" d="M55.815624 107.58889L54.7375 107.58889L54.7375 100.37014L52.55 101.167015L52.55 100.18264L55.659374 99.010765L55.815624 99.010765L55.815624 107.58889ZM64.6125 103.948265Q64.6125 105.854515 63.95625 106.792015Q63.315624 107.71389 61.925 107.71389Q60.565624 107.71389 59.909374 106.80764Q59.253124 105.90139 59.221874 104.08889L59.221874 102.65139Q59.221874 100.760765 59.8625 99.854515Q60.51875 98.93264 61.909374 98.93264Q63.284374 98.93264 63.940624 99.823265Q64.59688 100.698265 64.6125 102.542015L64.6125 103.948265ZM63.51875 102.46389Q63.51875 101.08889 63.128124 100.46389Q62.753124 99.823265 61.909374 99.823265Q61.08125 99.823265 60.690624 100.46389Q60.315624 101.08889 60.315624 102.385765L60.315624 104.12014Q60.315624 105.49514 60.70625 106.167015Q61.1125 106.823265 61.925 106.823265Q62.721874 106.823265 63.1125 106.198265Q63.503124 105.573265 63.51875 104.24514L63.51875 102.46389ZM66.33125 109.292015L65.72188 108.87014Q66.26875 108.104515 66.3 107.27639L66.3 106.30764L67.3625 106.30764L67.3625 107.15139Q67.3625 107.74514 67.06563 108.33889Q66.76875 108.93264 66.33125 109.292015ZM73.6125 103.948265Q73.6125 105.854515 72.95625 106.792015Q72.31563 107.71389 70.925 107.71389Q69.56563 107.71389 68.90938 106.80764Q68.25313 105.90139 68.22188 104.08889L68.22188 102.65139Q68.22188 100.760765 68.8625 99.854515Q69.51875 98.93264 70.90938 98.93264Q72.28438 98.93264 72.94063 99.823265Q73.59688 100.698265 73.6125 102.542015L73.6125 103.948265ZM72.51875 102.46389Q72.51875 101.08889 72.12813 100.46389Q71.75313 99.823265 70.90938 99.823265Q70.08125 99.823265 69.69063 100.46389Q69.31563 101.08889 69.31563 102.385765L69.31563 104.12014Q69.31563 105.49514 69.70625 106.167015Q70.1125 106.823265 70.925 106.823265Q71.72188 106.823265 72.1125 106.198265Q72.50313 105.573265 72.51875 104.24514L72.51875 102.46389ZM80.6125 103.948265Q80.6125 105.854515 79.95625 106.792015Q79.31563 107.71389 77.925 107.71389Q76.56563 107.71389 75.90938 106.80764Q75.25313 105.90139 75.22188 104.08889L75.22188 102.65139Q75.22188 100.760765 75.8625 99.854515Q76.51875 98.93264 77.90938 98.93264Q79.28438 98.93264 79.94063 99.823265Q80.59688 100.698265 80.6125 102.542015L80.6125 103.948265ZM79.51875 102.46389Q79.51875 101.08889 79.12813 100.46389Q78.75313 99.823265 77.90938 99.823265Q77.08125 99.823265 76.69063 100.46389Q76.31563 101.08889 76.31563 102.385765L76.31563 104.12014Q76.31563 105.49514 76.70625 106.167015Q77.1125 106.823265 77.925 106.823265Q78.72188 106.823265 79.1125 106.198265Q79.50313 105.573265 79.51875 104.24514L79.51875 102.46389ZM87.6125 103.948265Q87.6125 105.854515 86.95625 106.792015Q86.31563 107.71389 84.925 107.71389Q83.56563 107.71389 82.90938 106.80764Q82.25313 105.90139 82.22188 104.08889L82.22188 102.65139Q82.22188 100.760765 82.8625 99.854515Q83.51875 98.93264 84.90938 98.93264Q86.28438 98.93264 86.94063 99.823265Q87.59688 100.698265 87.6125 102.542015L87.6125 103.948265ZM86.51875 102.46389Q86.51875 101.08889 86.12813 100.46389Q85.75313 99.823265 84.90938 99.823265Q84.08125 99.823265 83.69063 100.46389Q83.31563 101.08889 83.31563 102.385765L83.31563 104.12014Q83.31563 105.49514 83.70625 106.167015Q84.1125 106.823265 84.925 106.823265Q85.72188 106.823265 86.1125 106.198265Q86.50313 105.573265 86.51875 104.24514L86.51875 102.46389Z" fill-rule="nonzero"/><path fill="#757575" d="M55.815624 61.916668L54.7375 61.916668L54.7375 54.697918L52.55 55.494793L52.55 54.510418L55.659374 53.338543L55.815624 53.338543L55.815624 61.916668ZM64.84688 61.916668L59.253124 61.916668L59.253124 61.135418L62.20625 57.854168Q62.8625 57.104168 63.1125 56.651043Q63.3625 56.182293 63.3625 55.682293Q63.3625 55.010418 62.95625 54.588543Q62.565624 54.151043 61.878124 54.151043Q61.08125 54.151043 60.628124 54.619793Q60.175 55.072918 60.175 55.901043L59.096874 55.901043Q59.096874 54.713543 59.846874 53.994793Q60.6125 53.260418 61.878124 53.260418Q63.08125 53.260418 63.76875 53.885418Q64.45625 54.510418 64.45625 55.557293Q64.45625 56.807293 62.846874 58.557293L60.565624 61.026043L64.84688 61.026043L64.84688 61.916668ZM66.33125 63.619793L65.72188 63.197918Q66.26875 62.432293 66.3 61.604168L66.3 60.635418L67.3625 60.635418L67.3625 61.479168Q67.3625 62.072918 67.06563 62.666668Q66.76875 63.260418 66.33125 63.619793ZM73.6125 58.276043Q73.6125 60.182293 72.95625 61.119793Q72.31563 62.041668 70.925 62.041668Q69.56563 62.041668 68.90938 61.135418Q68.25313 60.229168 68.22188 58.416668L68.22188 56.979168Q68.22188 55.088543 68.8625 54.182293Q69.51875 53.260418 70.90938 53.260418Q72.28438 53.260418 72.94063 54.151043Q73.59688 55.026043 73.6125 56.869793L73.6125 58.276043ZM72.51875 56.791668Q72.51875 55.416668 72.12813 54.791668Q71.75313 54.151043 70.90938 54.151043Q70.08125 54.151043 69.69063 54.791668Q69.31563 55.416668 69.31563 56.713543L69.31563 58.447918Q69.31563 59.822918 69.70625 60.494793Q70.1125 61.151043 70.925 61.151043Q71.72188 61.151043 72.1125 60.526043Q72.50313 59.901043 72.51875 58.572918L72.51875 56.791668ZM80.6125 58.276043Q80.6125 60.182293 79.95625 61.119793Q79.31563 62.041668 77.925 62.041668Q76.56563 62.041668 75.90938 61.135418Q75.25313 60.229168 75.22188 58.416668L75.22188 56.979168Q75.22188 55.088543 75.8625 54.182293Q76.51875 53.260418 77.90938 53.260418Q79.28438 53.260418 79.94063 54.151043Q80.59688 55.026043 80.6125 56.869793L80.6125 58.276043ZM79.51875 56.791668Q79.51875 55.416668 79.12813 54.791668Q78.75313 54.151043 77.90938 54.151043Q77.08125 54.151043 76.69063 54.791668Q76.31563 55.416668 76.31563 56.713543L76.31563 58.447918Q76.31563 59.822918 76.70625 60.494793Q77.1125 61.151043 77.925 61.151043Q78.72188 61.151043 79.1125 60.526043Q79.50313 59.901043 79.51875 58.572918L79.51875 56.791668ZM87.6125 58.276043Q87.6125 60.182293 86.95625 61.119793Q86.31563 62.041668 84.925 62.041668Q83.56563 62.041668 82.90938 61.135418Q82.25313 60.229168 82.22188 58.416668L82.22188 56.979168Q82.22188 55.088543 82.8625 54.182293Q83.51875 53.260418 84.90938 53.260418Q86.28438 53.260418 86.94063 54.151043Q87.59688 55.026043 87.6125 56.869793L87.6125 58.276043ZM86.51875 56.791668Q86.51875 55.416668 86.12813 54.791668Q85.75313 54.151043 84.90938 54.151043Q84.08125 54.151043 83.69063 54.791668Q83.31563 55.416668 83.31563 56.713543L83.31563 58.447918Q83.31563 59.822918 83.70625 60.494793Q84.1125 61.151043 84.925 61.151043Q85.72188 61.151043 86.1125 60.526043Q86.50313 59.901043 86.51875 58.572918L86.51875 56.791668Z" fill-rule="nonzero"/><path fill="#757575" d="M88.6125 340.91876L89.75313 340.91876L89.75313 346.96564Q89.75313 348.1844 89.00313 348.8875Q88.26875 349.575 87.05 349.575Q85.78438 349.575 85.06563 348.91876Q84.3625 348.2625 84.3625 347.09064L85.4875 347.09064Q85.4875 347.825 85.87813 348.2469Q86.28438 348.65314 87.05 348.65314Q87.75313 348.65314 88.175 348.21564Q88.6125 347.7625 88.6125 346.98126L88.6125 340.91876ZM95.78438 349.45Q95.69063 349.2625 95.62813 348.77814Q94.87813 349.575 93.83125 349.575Q92.89375 349.575 92.28438 349.04376Q91.69063 348.5125 91.69063 347.6844Q91.69063 346.7 92.44063 346.15314Q93.19063 345.60626 94.56563 345.60626L95.6125 345.60626L95.6125 345.10626Q95.6125 344.54376 95.26875 344.21564Q94.94063 343.8719 94.26875 343.8719Q93.69063 343.8719 93.3 344.16876Q92.90938 344.45 92.90938 344.8719L91.81563 344.8719Q91.81563 344.3875 92.14375 343.95Q92.4875 343.5125 93.06563 343.2625Q93.64375 342.9969 94.33125 342.9969Q95.44063 342.9969 96.05 343.54376Q96.675 344.09064 96.70625 345.04376L96.70625 347.96564Q96.70625 348.84064 96.925 349.35626L96.925 349.45L95.78438 349.45ZM93.9875 348.6219Q94.50313 348.6219 94.95625 348.35626Q95.40938 348.09064 95.6125 347.66876L95.6125 346.3719L94.76875 346.3719Q92.76875 346.3719 92.76875 347.54376Q92.76875 348.04376 93.1125 348.34064Q93.45625 348.6219 93.9875 348.6219ZM99.89375 343.10626L99.925 343.90314Q100.65938 342.9969 101.83125 342.9969Q103.84688 342.9969 103.8625 345.2625L103.8625 349.45L102.76875 349.45L102.76875 345.2469Q102.76875 344.575 102.45625 344.2469Q102.15938 343.91876 101.50313 343.91876Q100.97188 343.91876 100.56563 344.2Q100.175 344.48126 99.95625 344.9344L99.95625 349.45L98.87813 349.45L98.87813 343.10626L99.89375 343.10626Z" fill-rule="nonzero"/><path fill="#757575" d="M201.45467 340.91876L204.25154 347.8719L207.03279 340.91876L208.50154 340.91876L208.50154 349.45L207.37654 349.45L207.37654 346.1219L207.48592 342.54376L204.67342 349.45L203.81404 349.45L201.01717 342.5594L201.12654 346.1219L201.12654 349.45L200.00154 349.45L200.00154 340.91876L201.45467 340.91876ZM213.75154 349.45Q213.65779 349.2625 213.59529 348.77814Q212.84529 349.575 211.79842 349.575Q210.86092 349.575 210.25154 349.04376Q209.65779 348.5125 209.65779 347.6844Q209.65779 346.7 210.40779 346.15314Q211.15779 345.60626 212.53279 345.60626L213.57967 345.60626L213.57967 345.10626Q213.57967 344.54376 213.23592 344.21564Q212.90779 343.8719 212.23592 343.8719Q211.65779 343.8719 211.26717 344.16876Q210.87654 344.45 210.87654 344.8719L209.78279 344.8719Q209.78279 344.3875 210.11092 343.95Q210.45467 343.5125 211.03279 343.2625Q211.61092 342.9969 212.29842 342.9969Q213.40779 342.9969 214.01717 343.54376Q214.64217 344.09064 214.67342 345.04376L214.67342 347.96564Q214.67342 348.84064 214.89217 349.35626L214.89217 349.45L213.75154 349.45ZM211.95467 348.6219Q212.47029 348.6219 212.92342 348.35626Q213.37654 348.09064 213.57967 347.66876L213.57967 346.3719L212.73592 346.3719Q210.73592 346.3719 210.73592 347.54376Q210.73592 348.04376 211.07967 348.34064Q211.42342 348.6219 211.95467 348.6219ZM219.90779 344.075Q219.65779 344.04376 219.37654 344.04376Q218.29842 344.04376 217.92342 344.95L217.92342 349.45L216.84529 349.45L216.84529 343.10626L217.89217 343.10626L217.90779 343.84064Q218.43904 342.9969 219.42342 342.9969Q219.73592 342.9969 219.90779 343.075L219.90779 344.075Z" fill-rule="nonzero"/><path fill="#757575" d="M317.33795 340.91876L320.13483 347.8719L322.91608 340.91876L324.38483 340.91876L324.38483 349.45L323.25983 349.45L323.25983 346.1219L323.3692 342.54376L320.5567 349.45L319.69733 349.45L316.90045 342.5594L317.00983 346.1219L317.00983 349.45L315.88483 349.45L315.88483 340.91876L317.33795 340.91876ZM329.63483 349.45Q329.54108 349.2625 329.47858 348.77814Q328.72858 349.575 327.6817 349.575Q326.7442 349.575 326.13483 349.04376Q325.54108 348.5125 325.54108 347.6844Q325.54108 346.7 326.29108 346.15314Q327.04108 345.60626 328.41608 345.60626L329.46295 345.60626L329.46295 345.10626Q329.46295 344.54376 329.1192 344.21564Q328.79108 343.8719 328.1192 343.8719Q327.54108 343.8719 327.15045 344.16876Q326.75983 344.45 326.75983 344.8719L325.66608 344.8719Q325.66608 344.3875 325.9942 343.95Q326.33795 343.5125 326.91608 343.2625Q327.4942 342.9969 328.1817 342.9969Q329.29108 342.9969 329.90045 343.54376Q330.52545 344.09064 330.5567 345.04376L330.5567 347.96564Q330.5567 348.84064 330.77545 349.35626L330.77545 349.45L329.63483 349.45ZM327.83795 348.6219Q328.35358 348.6219 328.8067 348.35626Q329.25983 348.09064 329.46295 347.66876L329.46295 346.3719L328.6192 346.3719Q326.6192 346.3719 326.6192 347.54376Q326.6192 348.04376 326.96295 348.34064Q327.3067 348.6219 327.83795 348.6219ZM334.79108 347.85626L336.27545 343.10626L337.4317 343.10626L334.88483 350.4344Q334.29108 352.0125 333.00983 352.0125L332.79108 351.9969L332.40045 351.91876L332.40045 351.04376L332.6817 351.0594Q333.2442 351.0594 333.54108 350.84064Q333.85358 350.6219 334.0567 350.02814L334.29108 349.3719L332.02545 343.10626L333.21295 343.10626L334.79108 347.85626Z" fill-rule="nonzero"/><path fill="#757575" d="M439.34622 340.91876L440.48685 340.91876L440.48685 346.96564Q440.48685 348.1844 439.73685 348.8875Q439.00247 349.575 437.78372 349.575Q436.5181 349.575 435.79935 348.91876Q435.09622 348.2625 435.09622 347.09064L436.22122 347.09064Q436.22122 347.825 436.61185 348.2469Q437.0181 348.65314 437.78372 348.65314Q438.48685 348.65314 438.90872 348.21564Q439.34622 347.7625 439.34622 346.98126L439.34622 340.91876ZM446.5181 348.825Q445.8931 349.575 444.65872 349.575Q443.6431 349.575 443.11185 348.98126Q442.5806 348.3875 442.5806 347.23126L442.5806 343.10626L443.65872 343.10626L443.65872 347.2Q443.65872 348.65314 444.8306 348.65314Q446.0806 348.65314 446.48685 347.71564L446.48685 343.10626L447.5806 343.10626L447.5806 349.45L446.54935 349.45L446.5181 348.825ZM450.78372 349.45L449.7056 349.45L449.7056 340.45L450.78372 340.45L450.78372 349.45Z" fill-rule="nonzero"/><path fill="#757575" d="M555.5831 345.65314Q554.1456 345.23126 553.47375 344.6219Q552.8175 344.0125 552.8175 343.1219Q552.8175 342.1219 553.6144 341.46564Q554.4269 340.79376 555.72375 340.79376Q556.59875 340.79376 557.28625 341.1375Q557.97375 341.48126 558.34875 342.075Q558.7394 342.66876 558.7394 343.3875L557.59875 343.3875Q557.59875 342.60626 557.09875 342.16876Q556.6144 341.73126 555.72375 341.73126Q554.8956 341.73126 554.4269 342.10626Q553.9581 342.46564 553.9581 343.10626Q553.9581 343.6375 554.3956 343.9969Q554.84875 344.35626 555.91125 344.65314Q556.97375 344.95 557.5675 345.3094Q558.1769 345.66876 558.4581 346.15314Q558.755 346.6375 558.755 347.27814Q558.755 348.325 557.9425 348.95Q557.13 349.575 555.78625 349.575Q554.8956 349.575 554.13 349.23126Q553.38 348.8875 552.9581 348.3094Q552.5519 347.71564 552.5519 346.98126L553.6769 346.98126Q553.6769 347.7469 554.255 348.2Q554.8331 348.65314 555.78625 348.65314Q556.6769 348.65314 557.1456 348.29376Q557.6144 347.91876 557.6144 347.29376Q557.6144 346.66876 557.1769 346.325Q556.7394 345.98126 555.5831 345.65314ZM562.53625 349.575Q561.2394 349.575 560.4269 348.73126Q559.63 347.8719 559.63 346.45L559.63 346.2625Q559.63 345.3094 559.9894 344.575Q560.34875 343.825 560.9894 343.41876Q561.6456 342.9969 562.3956 342.9969Q563.63 342.9969 564.3175 343.8094Q565.005 344.6219 565.005 346.1375L565.005 346.59064L560.7081 346.59064Q560.7394 347.52814 561.255 348.10626Q561.78625 348.6844 562.59875 348.6844Q563.16125 348.6844 563.5519 348.45Q563.9581 348.21564 564.2706 347.825L564.9269 348.34064Q564.13 349.575 562.53625 349.575ZM562.3956 343.8875Q561.7394 343.8875 561.28625 344.3719Q560.84875 344.84064 560.755 345.7L563.9269 345.7L563.9269 345.6219Q563.88 344.79376 563.47375 344.34064Q563.0831 343.8875 562.3956 343.8875ZM571.255 346.35626Q571.255 347.79376 570.59875 348.6844Q569.9425 349.575 568.8019 349.575Q567.6456 349.575 566.9894 348.84064L566.9894 351.8875L565.91125 351.8875L565.91125 343.10626L566.8956 343.10626L566.9425 343.8094Q567.6144 342.9969 568.78625 342.9969Q569.9269 342.9969 570.5831 343.85626Q571.255 344.71564 571.255 346.2469L571.255 346.35626ZM570.1769 346.23126Q570.1769 345.15314 569.7081 344.54376Q569.255 343.91876 568.4581 343.91876Q567.47375 343.91876 566.9894 344.77814L566.9894 347.8094Q567.47375 348.6844 568.47375 348.6844Q569.255 348.6844 569.7081 348.075Q570.1769 347.45 570.1769 346.23126Z" fill-rule="nonzero"/><path fill="#757575" d="M675.5133 349.45L674.3883 349.45L670.09143 342.8719L670.09143 349.45L668.9508 349.45L668.9508 340.91876L670.09143 340.91876L674.3883 347.52814L674.3883 340.91876L675.5133 340.91876L675.5133 349.45ZM677.4977 346.21564Q677.4977 345.29376 677.85706 344.54376Q678.23206 343.79376 678.8883 343.40314Q679.54456 342.9969 680.3727 342.9969Q681.66956 342.9969 682.46643 343.8875Q683.27893 344.77814 683.27893 346.27814L683.27893 346.35626Q683.27893 347.27814 682.91956 348.0125Q682.5602 348.7469 681.90393 349.16876Q681.2477 349.575 680.3883 349.575Q679.10706 349.575 678.29456 348.6844Q677.4977 347.77814 677.4977 346.29376L677.4977 346.21564ZM678.59143 346.35626Q678.59143 347.40314 679.0758 348.04376Q679.5758 348.6844 680.3883 348.6844Q681.21643 348.6844 681.7008 348.04376Q682.1852 347.3875 682.1852 346.21564Q682.1852 345.1844 681.6852 344.54376Q681.2008 343.8875 680.3727 343.8875Q679.5758 343.8875 679.0758 344.52814Q678.59143 345.15314 678.59143 346.35626ZM686.8727 347.98126L688.4508 343.10626L689.5602 343.10626L687.27893 349.45L686.4508 349.45L684.15393 343.10626L685.2633 343.10626L686.8727 347.98126Z" fill-rule="nonzero"/><path fill="#000000" d="M28.175 22.175L28.175 29.659374Q28.175 31.534374 27.003124 32.628124Q25.846874 33.70625 23.815624 33.70625Q21.83125 33.70625 20.659374 32.659374Q19.4875 31.596874 19.45625 29.753124L19.45625 22.175L21.8 22.175L21.8 29.675Q21.8 30.8 22.33125 31.315624Q22.878124 31.815624 23.815624 31.815624Q25.8 31.815624 25.83125 29.7375L25.83125 22.175L28.175 22.175ZM35.003124 31.20625Q35.003124 30.8 34.58125 30.565624Q34.175 30.315624 33.26875 30.128124Q30.253124 29.503124 30.253124 27.565624Q30.253124 26.440624 31.190624 25.690624Q32.128124 24.940624 33.628124 24.940624Q35.2375 24.940624 36.20625 25.70625Q37.175 26.45625 37.175 27.659374L34.909374 27.659374Q34.909374 27.175 34.596874 26.8625Q34.284374 26.55 33.628124 26.55Q33.05 26.55 32.7375 26.815624Q32.425 27.065624 32.425 27.45625Q32.425 27.83125 32.784374 28.065624Q33.14375 28.3 33.9875 28.471874Q34.83125 28.628124 35.409374 28.846874Q37.190624 29.503124 37.190624 31.1125Q37.190624 32.26875 36.190624 32.9875Q35.20625 33.70625 33.64375 33.70625Q32.58125 33.70625 31.753124 33.33125Q30.925 32.940624 30.45625 32.284374Q29.9875 31.628124 29.9875 30.8625L32.128124 30.8625Q32.159374 31.45625 32.565624 31.784374Q32.9875 32.096874 33.690624 32.096874Q34.33125 32.096874 34.659374 31.8625Q35.003124 31.6125 35.003124 31.20625ZM42.315624 33.70625Q40.45625 33.70625 39.284374 32.565624Q38.1125 31.425 38.1125 29.51875L38.1125 29.3Q38.1125 28.034374 38.596874 27.034374Q39.096874 26.01875 40.003124 25.4875Q40.909374 24.940624 42.065624 24.940624Q43.8 24.940624 44.784374 26.034374Q45.784374 27.128124 45.784374 29.128124L45.784374 30.05L40.409374 30.05Q40.51875 30.878124 41.065624 31.378124Q41.6125 31.878124 42.45625 31.878124Q43.76875 31.878124 44.503124 30.940624L45.6125 32.175Q45.096874 32.89375 44.221874 33.3Q43.3625 33.70625 42.315624 33.70625ZM42.05 26.76875Q41.378124 26.76875 40.95625 27.221874Q40.55 27.675 40.425 28.51875L43.565624 28.51875L43.565624 28.33125Q43.55 27.58125 43.159374 27.175Q42.76875 26.76875 42.05 26.76875ZM52.175 27.20625Q51.70625 27.14375 51.3625 27.14375Q50.08125 27.14375 49.675 28.01875L49.675 33.55L47.425 33.55L47.425 25.096874L49.55 25.096874L49.6125 26.096874Q50.3 24.940624 51.503124 24.940624Q51.878124 24.940624 52.20625 25.034374L52.175 27.20625ZM58.003124 31.20625Q58.003124 30.8 57.58125 30.565624Q57.175 30.315624 56.26875 30.128124Q53.253124 29.503124 53.253124 27.565624Q53.253124 26.440624 54.190624 25.690624Q55.128124 24.940624 56.628124 24.940624Q58.2375 24.940624 59.20625 25.70625Q60.175 26.45625 60.175 27.659374L57.909374 27.659374Q57.909374 27.175 57.596874 26.8625Q57.284374 26.55 56.628124 26.55Q56.05 26.55 55.7375 26.815624Q55.425 27.065624 55.425 27.45625Q55.425 27.83125 55.784374 28.065624Q56.14375 28.3 56.9875 28.471874Q57.83125 28.628124 58.409374 28.846874Q60.190624 29.503124 60.190624 31.1125Q60.190624 32.26875 59.190624 32.9875Q58.20625 33.70625 56.64375 33.70625Q55.58125 33.70625 54.753124 33.33125Q53.925 32.940624 53.45625 32.284374Q52.9875 31.628124 52.9875 30.8625L55.128124 30.8625Q55.159374 31.45625 55.565624 31.784374Q55.9875 32.096874 56.690624 32.096874Q57.33125 32.096874 57.659374 31.8625Q58.003124 31.6125 58.003124 31.20625ZM73.03438 29.39375Q73.03438 31.425 72.15938 32.565624Q71.3 33.70625 69.75313 33.70625Q68.37813 33.70625 67.55 32.64375L67.45625 33.55L65.425 33.55L65.425 21.55L67.675 21.55L67.675 25.846874Q68.45625 24.940624 69.7375 24.940624Q71.28438 24.940624 72.15938 26.08125Q73.03438 27.20625 73.03438 29.26875L73.03438 29.39375ZM70.78438 29.2375Q70.78438 27.95625 70.37813 27.3625Q69.97188 26.76875 69.15938 26.76875Q68.08125 26.76875 67.675 27.659374L67.675 30.9875Q68.09688 31.878124 69.175 31.878124Q70.26875 31.878124 70.6125 30.8Q70.78438 30.284374 70.78438 29.2375ZM77.58125 30.346874L79.14375 25.096874L81.56563 25.096874L78.15938 34.8625L77.97188 35.315624Q77.22188 36.971874 75.47188 36.971874Q74.9875 36.971874 74.47188 36.815624L74.47188 35.1125L74.81563 35.1125Q75.45625 35.1125 75.76875 34.909374Q76.09688 34.721874 76.26875 34.26875L76.53438 33.58125L73.58125 25.096874L76.00313 25.096874L77.58125 30.346874ZM88.53438 25.096874L88.6125 26.034374Q89.50313 24.940624 91.03438 24.940624Q92.675 24.940624 93.28438 26.221874Q94.175 24.940624 95.81563 24.940624Q97.19063 24.940624 97.8625 25.7375Q98.53438 26.534374 98.53438 28.14375L98.53438 33.55L96.26875 33.55L96.26875 28.159374Q96.26875 27.440624 95.9875 27.1125Q95.70625 26.76875 95.00313 26.76875Q93.9875 26.76875 93.59688 27.7375L93.59688 33.55L91.34688 33.55L91.34688 28.159374Q91.34688 27.425 91.05 27.096874Q90.76875 26.76875 90.06563 26.76875Q89.1125 26.76875 88.675 27.565624L88.675 33.55L86.425 33.55L86.425 25.096874L88.53438 25.096874ZM100.06563 29.2375Q100.06563 27.9875 100.55 27.003124Q101.03438 26.01875 101.94063 25.4875Q102.8625 24.940624 104.06563 24.940624Q105.76875 24.940624 106.84688 25.9875Q107.94063 27.034374 108.06563 28.83125L108.08125 29.409374Q108.08125 31.346874 106.9875 32.534374Q105.90938 33.70625 104.08125 33.70625Q102.25313 33.70625 101.15938 32.534374Q100.06563 31.3625 100.06563 29.346874L100.06563 29.2375ZM102.33125 29.409374Q102.33125 30.6125 102.78438 31.253124Q103.2375 31.878124 104.08125 31.878124Q104.89375 31.878124 105.34688 31.253124Q105.81563 30.628124 105.81563 29.2375Q105.81563 28.065624 105.34688 27.425Q104.89375 26.76875 104.06563 26.76875Q103.2375 26.76875 102.78438 27.409374Q102.33125 28.05 102.33125 29.409374ZM111.50313 25.096874L111.56563 26.065624Q112.47188 24.940624 114.00313 24.940624Q115.34688 24.940624 116.00313 25.7375Q116.65938 26.51875 116.675 28.08125L116.675 33.55L114.40938 33.55L114.40938 28.14375Q114.40938 27.425 114.09688 27.096874Q113.78438 26.76875 113.06563 26.76875Q112.1125 26.76875 111.62813 27.58125L111.62813 33.55L109.37813 33.55L109.37813 25.096874L111.50313 25.096874ZM121.12813 23.01875L121.12813 25.096874L122.56563 25.096874L122.56563 26.753124L121.12813 26.753124L121.12813 30.971874Q121.12813 31.440624 121.3 31.64375Q121.4875 31.846874 121.9875 31.846874Q122.3625 31.846874 122.65938 31.784374L122.65938 33.503124Q121.9875 33.70625 121.28438 33.70625Q118.90938 33.70625 118.8625 31.3L118.8625 26.753124L117.62813 26.753124L117.62813 25.096874L118.8625 25.096874L118.8625 23.01875L121.12813 23.01875ZM125.62813 26.01875Q126.51875 24.940624 127.87813 24.940624Q130.62813 24.940624 130.675 28.128124L130.675 33.55L128.40938 33.55L128.40938 28.190624Q128.40938 27.471874 128.09688 27.128124Q127.78438 26.76875 127.06563 26.76875Q126.06563 26.76875 125.62813 27.534374L125.62813 33.55L123.3625 33.55L123.3625 21.55L125.62813 21.55L125.62813 26.01875Z" fill-rule="nonzero"/></svg>